<?xml version="1.0" encoding="utf-8"?>
<!-- Generator: Adobe Illustrator 23.0.6, SVG Export Plug-In . SVG Version: 6.00 Build 0)  -->
<svg version="1.1" id="Livello_1" xmlns="http://www.w3.org/2000/svg" xmlns:xlink="http://www.w3.org/1999/xlink" x="0px" y="0px"
	 viewBox="0 0 512 512" style="enable-background:new 0 0 512 512;" xml:space="preserve">
<style type="text/css">
	.st0{fill:#F9C8C3;}
	.st1{fill:#FFFFFF;}
	.st2{fill:#F8E75A;}
	.st3{fill:#337A93;}
</style>
<g>
	<g>
		<path class="st0" d="M474.88,333.26c-5.7,19-16.94,34.84-28.79,50.31c-7.14,9.32-15.09,18.03-24.86,24.54
			c-6.35,4.23-8.4,9.82-8.51,16.62c-0.15,9.14-1.58,18.23-0.97,27.39c0.17,2.52-0.47,4.39-3.41,3.66c-4.6-1.14-9.25-0.77-13.88-0.75
			c-2.46,0.01-3.48-0.73-3.46-3.34c0.07-10.49-0.06-20.97-0.75-31.46c-0.53-8.11-0.13-7.89-8.01-10.49
			c-8.53-2.81-14.92-8.9-20.67-15.47c-10.42-11.92-18.06-25.32-20.65-41.24c-0.51-3.16-0.69-6.46,1.77-8.31
			c2.36-1.78,5.5-0.68,8.03,0.92c3.6,2.28,6.88,5.05,8.53,9.01c2.27,5.46,6.91,7.48,11.96,8.25c15.53,2.38,26.08,12.42,28.93,27.8
			c0.37,1.99-0.54,5.6,2.95,5.52c3.16-0.07,4.4-3.13,4.73-5.8c1.05-8.55-1.48-16.35-6.12-23.39c-5.43-8.23-13.31-13.34-22.74-15.85
			c-3.42-0.91-4.28-2.46-4.21-5.87c0.22-12.25-0.33-24.53,0.18-36.76c0.41-9.96,0.96-20,3.56-29.73c0.42-1.58,0.16-4.27,2.25-4.35
			c1.86-0.07,2.36,2.45,3.12,4.04c2.02,4.24,3.02,8.86,3.36,13.42c0.32,4.23,0.89,8.44,0.42,12.87
			c-1.09,10.13,0.74,20.28,1.62,30.41c0.16,1.81,1.22,3.11,3.09,3.37c2.15,0.31,3.38-1.07,4.12-2.82c1.71-4.04,1.97-8.4,2.65-12.67
			c1.8-11.34,2.17-22.9,5.44-34c1.74-5.9,3.54-11.78,7.06-16.93c0.93-1.36,1.67-3.12,3.67-2.76c1.92,0.34,2.24,2.24,2.75,3.78
			c3.38,10.08,1.45,20.11-0.37,30.13c-1.9,10.42-3.95,20.81-5.82,31.23c-0.42,2.33,0.09,4.74,2.52,5.71
			c2.45,0.97,4.04-0.96,5.1-2.73c3.84-6.43,7.78-12.84,11.13-19.52c4.78-9.53,9.96-18.83,15.44-27.96c0.23-0.39,0.41-0.84,0.74-1.12
			c1.95-1.67,3.11-5.16,6.37-4.06c3.29,1.11,1.84,4.42,1.81,6.74c-0.13,11.61-4.01,22.31-8.63,32.75
			c-2.43,5.49-5.29,10.78-8.02,16.13c-1.23,2.41-2.17,4.82,0.25,6.96c2.37,2.09,4.48,0.62,6.44-0.89
			c5.73-4.42,10.65-9.66,15.45-15.04c2.39-2.68,4.92-5.25,7.5-7.75c2.89-2.8,5.37-2.81,6.92,1.4
			C474.88,327.85,474.88,330.56,474.88,333.26z"/>
		<rect x="78.63" y="130.83" class="st1" width="239.46" height="128.59"/>
		<path class="st2" d="M93.38,327.42c-4.57-2.92-6.69-6.61-9.47-9.66c-15.11-16.56-27.28-34.97-35.51-55.91
			c-5.25-13.35-7.77-27.23-9.17-41.47c-1.12-11.41-1.24-22.83-0.59-34.16c2.05-35.89,13.03-68.14,40.42-93.13
			c22.53-20.55,48.63-33.86,78.93-38.22c13.39-1.93,26.96-2.13,40.34,0.05c7.69,1.25,15.06,4.01,20.9,9.73
			c2.6,2.55,5.87,3.51,9.01,1.38c5.75-3.9,12.4-4.23,18.82-4.96c23.91-2.73,43.5,6.62,60.64,22.47c20.58,19.03,35.71,41.47,44,68.46
			c6.89,22.44,8.48,45.5,6.55,68.53c-2.5,29.84-10.95,58.22-26.49,84.16c-3.1,5.18-6.88,9.82-11.24,14
			c-2.07,1.98-3.79,2.92-6.41,0.34c-3.63-3.58-7.77-2.33-11.53,0.13c-7.78,5.1-15.43,10.39-23.62,14.84
			c-8.33,4.52-16.89,8.31-26.24,10.36c-3.14,0.69-4.36-0.26-5.62-2.6c-2.02-3.76-2.76-7.89-3.68-11.97
			c-0.56-2.47,1.5-2.51,2.93-3.14c28.72-12.62,49.64-33.41,62.86-61.63c7.68-16.39,11.88-33.77,11.72-52.18
			c-0.14-15.69-0.8-31.13-6.66-45.93c-2.99-7.57-6.96-13.36-15.36-16.74c-27.42-11.05-47.73-30.08-59.95-57.29
			c-0.79-1.77-1.67-3.62-1.85-5.5c-0.34-3.59-1.73-6.1-5.47-6.59c-3.92-0.51-6.04,1.86-7.53,5.13
			c-4.61,10.11-9.57,20.09-15.86,29.25c-19.82,28.86-41.92,55.71-71.54,75.14c-13.81,9.06-29.02,15.67-44.24,22.07
			c-4.72,1.98-6.19,5.04-6.39,10.05c-1.21,29.91,10.49,54.77,29.05,77.24c14.5,17.55,33.11,28.34,54.68,34.47
			c3.18,0.9,4.21,1.65,2.46,4.98c-3.35,6.39-3.16,6.52-9.98,4.24c-20.1-6.71-37.7-17.58-53.19-31.97c-1.85-1.72-3.9-3.33-6.1-4.57
			c-5.2-2.94-10.15-0.18-10.39,5.78C92.4,317.2,92.34,321.84,93.38,327.42z M87.03,191.41c0,1.51,0,2.41,0,3.32
			c-0.01,7.48,3.14,9.4,9.95,6.1c5.16-2.5,9.93-5.63,14.28-9.33c17.49-14.92,34.34-30.5,49.57-47.78
			c10.27-11.65,19.46-24.01,26.27-38.03c4.25-8.75,0.08-15.16-9.75-15c-3.52,0.05-6.8,1.13-10.01,2.35
			c-29.89,11.3-52.24,31.25-67.62,59.15C92.86,164.61,87.45,177.52,87.03,191.41z"/>
		<path class="st3" d="M280.73,459.47c-17.26-1.75-34.86,0.04-52.36-1.09c-15.46-1-30.91,0.04-46.32-0.8
			c-19.04-1.03-38.09-0.48-57.13-0.97c-5.06-0.13-10.14-0.82-15.23-0.7c-1.92,0.05-2.6-0.93-3.08-2.53
			c-5-16.8-14.65-30.72-26.8-43.05c-2.04-2.06-1.12-3.14,0.4-4.74c8.43-8.89,19.35-13.36,30.51-17.49
			c9.3-3.44,19.04-5.16,28.56-7.71c7.43-2,14.54-4.64,21.05-8.8c1.45-0.93,2.64-1.52,4.35-0.03c17.4,15.23,37.6,17.9,59.35,12.66
			c9.82-2.36,19.3-5.68,26.76-12.99c1.57-1.54,3.11-0.93,4.44,0.13c14.16,11.36,31.29,16.87,47.45,24.32
			c8.75,4.04,16.61,9.56,23.03,16.93c1.57,1.8,1.72,2.96-0.67,4.06c-16.53,7.61-26.68,21.26-34.76,36.84
			C286.87,460.09,288.69,459.42,280.73,459.47z"/>
		<path class="st0" d="M101.79,236.33c4.16,3.21,7.15,6.33,10.98,8.4c18.34,9.93,50,5.12,64.46-15.02
			c8.24-11.47,12.16-24.56,13.6-38.47c0.16-1.51-0.04-3.06,1.63-3.88c4.07-2.01,8.42-3.5,12.9-3.44c6.2,0.08,8.1,2.5,8.02,8.96
			c-0.16,13.51,2.38,26.32,10.72,37.28c10.29,13.54,24.35,20.52,41.14,21.93c14.62,1.23,26.63-4.35,36.59-14.84
			c0.78-0.82,1.37-2.05,3.21-1.85c-1.49,7.21-3.81,14.08-6.73,20.73c-10.71,24.39-28.05,42.81-51.65,54.84
			c-12.82,6.54-26.86,9.74-41.27,11.62c-23.4,3.04-43.74-4.31-62.62-17.02c-12.71-8.55-21.04-21.12-29.12-33.8
			C106.96,261.25,102.89,249.85,101.79,236.33z M227.12,302.63c2.51,0.37,4.8-0.54,7.16-0.87c13.47-1.91,26.47-18.01,20.78-34.21
			c-2.13-6.07-5.43-8.61-9.96-7.21c-3.73,1.15-4.95,4.47-2.91,10.78c2.78,8.57-4.01,15.97-10.24,17.75
			c-5.67,1.63-10.9,0.17-16.18-1.36c-5.13-1.49-8.94-4.66-11.55-9.36c-0.91-1.63-2.48-2.83-4.46-2.28
			c-2.06,0.58-1.67,2.55-1.76,4.17c-0.16,2.75,0.28,5.31,1.63,7.79C205.61,298.79,215.99,301.43,227.12,302.63z"/>
		<path class="st1" d="M439.76,102.05c0,22.98-22.22,37.94-43.22,29.75c-7.82-3.05-14.81-7.06-19.31-14.53
			c-6.71-11.14-2.64-24,5.54-34.03c4.89-5.99,10.81-10.69,19.04-11.69c12.65-1.54,22.92,2.94,31.13,12.2
			C437.6,89.02,440.46,95.29,439.76,102.05z"/>
		<path class="st0" d="M231.08,102.29c6.5,14.02,14.33,26.13,25.07,36.24c5.92,5.58,12.34,10.45,19.23,14.74
			c1.35,0.84,3.83,1.46,3.31,3.13c-0.69,2.22-2.76,0.25-4.24,0.26c-7.94,0.06-15.85-0.44-23.81,0.4c-7.91,0.84-15.7,2.07-23.37,4.06
			c-5.23,1.35-10.01,3.47-11.99,9.11c-0.54,1.53-1.5,1.78-2.78,1.42c-6.57-1.83-12.78-0.03-18.87,2.06
			c-2.34,0.8-3.18,0.43-3.85-1.88c-0.49-1.68-1.32-3.55-2.6-4.63c-1.86-1.57-1.36-2.39-0.05-3.91c5.95-6.93,12.02-13.74,17.74-20.87
			C214.76,130.1,223.23,116.9,231.08,102.29z"/>
		<path class="st0" d="M208.06,373.05c-11.54-0.25-21.61-2.92-30.51-9.52c-2.95-2.19-4.12-3.96-1.36-7.51
			c3.47-4.48,6.05-9.61,6.77-15.48c0.25-2.05,0.89-4.23,3.96-3.55c9.16,2.01,18.11-0.57,27.13-1.43c4.29-0.41,8.53-1.47,12.74-2.46
			c1.82-0.43,2.56-0.48,2.91,1.76c1.59,10.1,6.58,18.54,13.48,25.88c2.18,2.31,1.68,3.42-0.93,4.5
			C231.08,369.81,219.53,372.6,208.06,373.05z"/>
		<path class="st1" d="M442.37,184.56c-9.05-0.47-17.33-3.05-22.44-11.04c-7.43-11.63-0.08-28.21,13.8-32.27
			c6.34-1.86,12.13-1.04,17.5,2.81c7.1,5.11,11.85,11.78,13.53,20.45c1.04,5.41-3.2,13.24-9.05,16.43
			C451.59,183.18,447.23,184.83,442.37,184.56z"/>
		<path class="st0" d="M328.68,459.49c-7.46,0-14.93-0.04-22.39,0.02c-2.52,0.02-2.83-0.93-1.75-2.96
			c6.23-11.64,14.14-21.8,25.35-29.12c2.27-1.48,3.54-1.42,4.52,1.56c2.96,8.96,4.78,18.14,5.93,27.46
			c0.29,2.33-0.69,4.08-3.57,3.96c-2.69-0.11-5.39-0.02-8.09-0.02C328.68,460.09,328.68,459.79,328.68,459.49z"/>
		<path class="st0" d="M77,455.9c-4.94,0-9.89-0.07-14.83,0.03c-2.44,0.05-3.03-0.83-2.72-3.25c1.25-9.88,4.71-19.07,8.33-28.23
			c0.99-2.51,2.21-3.52,4.42-1.03c8.05,9.05,15.97,18.19,21.75,28.95c1.43,2.66,1.13,3.68-2.12,3.57
			c-4.94-0.17-9.89-0.04-14.83-0.04C77,455.9,77,455.9,77,455.9z"/>
		<path class="st1" d="M395.02,175.48c-8.82,0.43-15.62-7.79-13.69-16.31c1.02-4.49,0.96-8.78,6.06-10.68
			c6.54-2.43,13.83,1.45,17.12,9.19c2.93,6.89,2.35,10.94-2.16,15.12C399.94,175.02,398.68,175.48,395.02,175.48z"/>
		<path class="st0" d="M109.39,161.7c4.02-8.5,8.78-15.78,14.46-22.27c11.68-13.36,25.57-23.96,41.9-31.17
			c1.17-0.51,2.6-2,3.64-0.85c1.25,1.39-0.55,2.63-1.26,3.82c-7.29,12.33-17,22.76-26.37,33.45c-2.86,3.27-6.47,5.91-8.73,9.67
			c-3.02,5.02-8.16,4.83-12.91,5.68C116.91,160.59,113.67,161.04,109.39,161.7z"/>
	</g>
	<g>
		<path d="M210.86,471.96c-33.5-0.56-67-0.96-100.5-1.75c-18.31-0.43-36.64-0.74-54.91-2.3c-6.69-0.57-10.3-3.93-10.08-10.67
			c0.9-27.47,10.61-51.03,32.19-68.73c10.9-8.94,24.33-12.9,37.63-16.78c10.51-3.06,21.53-4.3,31.69-8.7
			c3.33-1.44,6.41-3.27,9.42-5.28c2.04-1.36,2.63-2.28-0.25-3.44c-17.65-7.12-34.49-15.64-48.53-28.85
			c-2.18-2.05-2.99-1.19-3.21,1.34c-0.26,2.84-0.48,5.69-0.87,8.51c-1.15,8.43-4.75,10.1-11.83,5.48
			c-7.5-4.89-13.54-11.4-19.65-17.83c-21.39-22.49-36.69-48.56-42.82-79.03c-7.71-38.3-7.59-76.57,7.04-113.55
			C46.5,104.25,63.83,82.96,86.95,67.4c29.95-20.15,63.11-31.29,99.86-29.22c14.94,0.84,29.25,3.54,41.27,13.35
			c1.67,1.36,3.29,0.97,5.07,0.39c31.32-10.3,58.25-1.44,82.17,19.32c25.26,21.92,43.34,48.65,51.64,81.3
			c12.39,48.72,7.18,95.96-13.13,141.71c-6.52,14.68-14.9,28.03-26.86,39.09c-7.71,7.13-12.15,7.57-19.46-0.13
			c-1.87-1.97-2.98-0.39-4.19,0.43c-9.35,6.37-19.2,11.79-29.6,16.22c-3.6,1.53-7.27,2.85-11.13,3.59
			c-1.11,0.21-2.77,0.06-2.87,1.54c-0.05,0.76,1.04,1.73,1.81,2.39c7.92,6.82,16.83,12.06,26.31,16.38
			c7.24,3.3,14.52,6.55,21.7,9.97c19.53,9.3,31.36,24.88,37.73,45.33c3.84,12.35,5.4,24.9,5.97,37.68c0.16,3.48-1.68,5.63-4.98,6.59
			c-2.79,0.82-5.65,0.74-8.5,0.7c-42.97-0.62-85.93-1.25-128.9-1.88C210.86,472.09,210.86,472.03,210.86,471.96z M92.28,326.46
			c0-3.12,0-5.2,0-7.28c0-2.1-0.12-4.21-0.01-6.31c0.37-6.74,5.52-9.66,11.3-6.2c2.81,1.68,5.38,3.85,7.79,6.09
			c14.86,13.85,32.1,23.68,51.21,30.29c6.29,2.18,6.2,1.99,9.14-3.9c1.4-2.81,0.86-3.92-2.15-4.61c-7.81-1.8-15.08-5.09-22.24-8.58
			c-23.35-11.37-38.3-30.87-50.65-52.81c-8.9-15.82-10.78-33.26-11.22-50.95c-0.12-4.95,1.97-8.65,7.03-10.33
			c2.7-0.9,5.28-2.16,7.86-3.38c16.14-7.68,32.93-14.4,46.78-25.94c27.22-22.66,50.43-48.89,67.95-79.88
			c3.18-5.63,6.07-11.4,8.72-17.3c1.45-3.22,3.76-5.67,7.61-5.15c3.94,0.53,6.01,3.17,6.33,7.09c0.16,2,0.86,3.78,1.67,5.57
			c12.03,26.84,32.09,45.6,59.03,56.54c9.03,3.66,13.38,9.66,16.49,17.99c6.51,17.44,7.7,35.54,6.05,53.74
			c-4.3,47.25-27.84,81.88-69.93,103.78c-8.04,4.18-8.38,4.52-5.04,13.06c0.22,0.56,0.51,1.09,0.69,1.66
			c1.27,3.9,3.77,4.75,7.71,3.87c8.92-1.99,17.01-5.87,24.93-10.22c7.65-4.2,14.95-8.95,22.08-13.97c4.09-2.88,8.62-4.17,12.89-0.72
			c2.77,2.24,4.55,1.34,6.54-0.66c4.36-4.4,8.15-9.26,11.18-14.65c20.71-36.81,29.5-76.26,25.49-118.35
			c-2.81-29.49-12.13-56.64-30.81-80.03c-14.49-18.14-30.27-34.65-53.78-41.19c-15.16-4.22-29.87-3.96-44.25,2.79
			c-3.34,1.57-6.63,1.36-9.27-1.07c-9.1-8.36-20.33-10.7-32.03-11.31c-29.43-1.54-57,4.9-82.36,20.15
			c-28.16,16.93-49.15,39.85-58.89,71.82c-8.06,26.43-8.92,53.4-5.8,80.74C44.84,266.41,65.09,297.6,92.28,326.46z M236.97,457.87
			c0,0.26,0,0.52,0,0.78c14.86,0,29.73-0.13,44.59,0.08c4.12,0.06,6.34-1.1,8.26-5.02c7.69-15.68,18.21-28.97,34.2-37.04
			c2.7-1.36,2.75-2.54,0.77-4.65c-7.11-7.6-15.68-13.07-25.1-17.21c-15.38-6.77-31.37-12.32-44.68-23.06c-2.24-1.8-3.44-0.15-5.01,1
			c-14.77,10.88-31.53,15.05-49.61,14.14c-12.99-0.65-24.54-5.48-34.66-13.59c-2.15-1.72-3.9-2.24-6.41-0.62
			c-6.25,4.02-13.23,6.41-20.36,8.32c-7.54,2.03-15.25,3.47-22.68,5.82c-12.61,4-25.07,8.42-34.75,18.22
			c-2.62,2.65-2.62,4.16,0.03,6.81c11.53,11.51,20.42,24.77,25.1,40.55c0.91,3.08,2.99,3.25,5.53,3.29
			c15.46,0.24,30.93,0.54,46.39,0.81C184.72,456.97,210.84,457.42,236.97,457.87z M303.99,236.51
			c-26.52,28.91-66.02,14.24-80.51-6.26c-8.14-11.53-10.94-24.5-10.43-38.4c0.19-5.1-1.82-6.91-7.41-7.26
			c-6.85-0.43-13.85,2.69-14.41,6.44c-0.02,0.15-0.02,0.3-0.03,0.45c-0.4,8.84-3.11,17.11-6.34,25.22
			c-13.04,32.8-51.83,43.85-80.02,22.85c-0.45-0.33-0.98-0.54-1.6-0.88c-0.24,0.62-0.53,1.01-0.51,1.39
			c0.07,1.19,0.23,2.39,0.41,3.57c2.81,17.75,12.34,32.19,23.44,45.53c20.04,24.09,45.81,35.84,77.38,33.04
			c36.53-3.24,65.13-20.22,85.71-50.66C296.92,260.82,300.82,248.81,303.99,236.51z M259.44,170.27c-10.51,0.78-21.16,1.2-31.6,3.72
			c-3.13,0.76-4.67,2.25-4.34,5.61c0.46,4.63,0.6,9.29,1.07,13.92c2.51,24.8,16,39.51,39.64,43.3c11.91,1.91,25.61-5.31,30.26-16.53
			c4.61-11.09,6.47-22.82,5.89-34.81c-0.37-7.69-1.92-9.39-9.57-11.3C280.56,171.63,270.07,170.89,259.44,170.27z M231.21,103.48
			c-3.6,6.15-6.55,11.65-9.92,16.88c-9.62,14.92-20.39,28.97-32.72,41.77c-2.02,2.1-2.8,3.62-0.22,5.8
			c0.95,0.81,1.48,2.24,1.91,3.49c0.6,1.71,1.38,2.54,3.3,1.77c5.83-2.35,11.93-2.86,18.14-2.38c1.67,0.13,2.88-0.41,3.69-1.95
			c2.58-4.96,7.14-6.98,12.23-8.35c15.25-4.11,30.78-4.82,46.45-4.22c1.19,0.05,2.62,0.81,4.02-1.01
			C256.78,143.53,241.57,126.23,231.21,103.48z M176.87,184.44c0-1.5,0.11-3.01-0.04-4.49c-0.11-1.14,0.03-2.72-1.21-3.15
			c-1.31-0.45-1.97,1.09-2.83,1.84c-4.06,3.56-8.01,7.24-12.11,10.76c-15.39,13.22-33.72,21.15-52.25,28.63
			c-3.67,1.48-3.92,2.68-1.38,5.58c14.19,16.16,38.22,17.14,53.81,2.22C172.7,214.49,174.86,199.49,176.87,184.44z M192.81,337.88
			c-1.65,0-3.31,0.12-4.95-0.03c-2.5-0.22-4.02,0.65-4.49,3.22c-1.14,6.18-3.93,11.63-7.63,16.63c-1.22,1.65-1.38,2.84,0.43,4.09
			c4.32,2.98,8.52,6.09,13.6,7.81c18.1,6.12,35.21,1.86,52.14-4.73c3.09-1.2,1.89-2.68,0.43-4.3c-6.01-6.68-10.94-14.03-12.51-23.02
			c-0.71-4.04-2.4-4.33-5.84-3.45C213.79,336.72,203.31,337.51,192.81,337.88z M330.86,459.21c0,0.28,0,0.57,0,0.85
			c0.75,0,1.5,0,2.25,0c6.57,0.02,6.86-0.12,6.26-6.85c-0.72-8.07-2.69-15.91-5.21-23.61c-0.88-2.69-2.02-3.3-4.48-1.55
			c-10.33,7.34-18.3,16.68-24.29,27.81c-1.42,2.65-0.62,3.41,2.15,3.38C315.31,459.16,323.09,459.21,330.86,459.21z M77.17,455.68
			c0-0.03,0-0.06,0-0.09c4.65,0,9.31-0.11,13.96,0.04c3.31,0.11,3.58-1.06,2.11-3.66c-5.8-10.26-12.99-19.45-21.21-27.87
			c-1.78-1.83-2.86-1.72-3.86,0.69c-3.64,8.76-6.74,17.64-8.07,27.11c-0.45,3.21,0.65,3.94,3.57,3.83
			C68.16,455.56,72.67,455.68,77.17,455.68z"/>
		<path d="M396.14,270.13c2.37-3.3,3.84-6.79,6.42-9.54c8.92-9.52,22.25-7.3,27.54,4.68c1.59,3.6,2.44,7.4,2.76,11.33
			c0.14,1.71-0.24,3.61,1.31,5.08c2.03-1.02,2.82-3.11,4.23-4.59c5.8-6.12,13.36-8.2,20.44-5.47c6.35,2.44,9.88,8.52,10.09,17.11
			c0.13,5.6-0.48,11.08-1.74,16.53c-0.32,1.37-1.47,3.31,1.81,3.17c11.83-0.53,17.98,5.22,18.84,17.06
			c0.65,8.95-1.21,17.36-5.22,25.28c-11.85,23.4-26.25,44.84-47.59,60.83c-1.56,1.17-3.06,2.63-4.84,3.26
			c-5.95,2.12-6.91,6.45-6.39,12.06c1.02,11.08,0.76,22.21,0.73,33.32c-0.01,5.38-2,7.96-7.21,8.41c-9.13,0.79-18.31,1.2-27.45,0.58
			c-9.19-0.62-12.85-4.91-12.28-14.17c0.64-10.33,0.55-20.72,2.13-30.99c0.33-2.16,0.05-3.84-2.52-4.42
			c-9.49-2.16-16.73-8.06-23.29-14.72c-12.9-13.09-22.39-28.17-25.74-46.61c-0.79-4.34-0.9-8.7-0.4-13.01
			c1.19-10.31,10.06-16.12,20.76-13.74c1.75,0.39,3.47,1,5.12,1.71c6.4,2.73,6.39,2.76,6.39-4.51c0.01-15.33,0.84-30.61,2.82-45.81
			c0.68-5.23,1.82-10.37,4.01-15.2c4.96-10.97,16.78-12.64,24.75-3.5C393.17,265.99,394.49,267.96,396.14,270.13z M387.37,302.74
			c0.02-8.69-0.72-16.13-3.57-23.22c-0.66-1.64-1.25-4.2-2.93-4.18c-1.98,0.02-1.7,2.74-2.21,4.34c-0.46,1.42-0.71,2.92-0.92,4.4
			c-2.9,20.74-3.66,41.54-2.06,62.43c0.2,2.63,1.34,3.7,3.63,4.29c5.17,1.33,9.8,3.79,14,7.04c10.63,8.24,15.78,19.06,14.85,32.53
			c-0.21,3.06-1.53,6.41-5.1,6.48c-3.6,0.07-2.91-3.58-3.34-5.91c-2.94-15.59-12.77-25.01-28.57-27.72c-5.4-0.93-10.27-3-12.58-8.84
			c-1.35-3.41-4.11-5.91-7.24-7.83c-2.43-1.49-5.11-3.33-7.94-1.6c-2.72,1.66-2.14,4.81-1.85,7.44c1.05,9.56,4.07,18.56,9.4,26.52
			c9.3,13.87,18.53,28.01,36.71,31.73c2.28,0.47,3.7,2.13,3.41,4.62c-1.18,9.9,0.68,19.75,0.43,29.65c-0.25,9.6,0.14,9.61,9.9,9.83
			c1.35,0.03,2.7,0.09,4.05,0.12c5.44,0.14,5.92-0.26,5.94-5.78c0.03-10.22,0.65-20.4,1.76-30.55c0.35-3.23,1.51-6.04,4.36-8.03
			c15.09-10.58,27.08-24.17,37.26-39.36c7.1-10.59,14.41-21.13,18.12-33.57c1.03-3.45,2.13-6.95,1.38-10.61
			c-0.35-1.67-0.15-3.97-2.22-4.58c-1.76-0.52-3.05,1.04-4.19,2.19c-3.37,3.42-6.55,7.03-9.98,10.4
			c-4.17,4.09-8.43,8.09-12.82,11.95c-1.86,1.63-4.23,2.63-6.57,0.79c-2.31-1.82-1.92-4.24-0.87-6.56c0.93-2.05,2.02-4.02,3.08-6.01
			c6.42-12,11.34-24.53,13.54-38.02c0.41-2.5,0.42-5.08,0.5-7.62c0.05-1.67-0.03-3.51-1.88-4.23c-2.17-0.85-3.3,0.93-4.41,2.29
			c-1.13,1.39-2.13,2.91-3.08,4.44c-5.2,8.45-9.82,17.21-14.32,26.05c-3.46,6.81-7.46,13.36-11.35,19.95
			c-1.19,2.01-3.04,3.6-5.62,2.64c-2.52-0.94-2.89-3.23-2.7-5.62c0.06-0.74,0.25-1.48,0.38-2.22c2.15-11.66,4.42-23.31,6.42-35
			c1.26-7.41,2.18-14.9,0.12-22.34c-0.58-2.08-0.53-5.11-3.08-5.56c-2.71-0.47-3.48,2.52-4.42,4.4c-4.54,9.06-7.52,18.64-8.73,28.73
			c-1.22,10.13-2.2,20.3-4.43,30.29c-0.64,2.88-1.62,5.89-5.36,5.47c-3.51-0.4-3.86-3.59-3.88-6.24
			C388.35,322.22,385.3,312,387.37,302.74z"/>
		<path d="M178.26,90.36c8.89-0.16,13.33,6.8,9.45,14.96c-7.42,15.64-17.98,29.06-29.46,41.85c-14.99,16.7-31.52,31.75-48.69,46.13
			c-3.81,3.19-8.06,5.78-12.54,7.94c-6.71,3.24-10.91,0.61-10.73-6.95c0.2-8.31,1.63-16.52,4.65-24.24
			c13.66-34.89,36.96-60.77,71.72-75.69C167.63,92.24,172.68,90.19,178.26,90.36z M110.19,161.08c6.05-0.91,11.38-1.67,16.69-2.55
			c0.82-0.14,1.69-0.71,2.28-1.32c13.74-14.31,27.36-28.72,38.17-45.48c0.59-0.92,1.94-2.03,0.8-3.13c-1.03-1-2.25,0.17-3.29,0.64
			c-8.69,3.88-16.79,8.8-24.14,14.8C128.27,134.18,117.69,145.92,110.19,161.08z"/>
		<path d="M226.34,302.96c-9.49-0.89-19.01-3.39-25.51-12.37c-1.79-2.47-3.01-5.21-3.48-8.22c-0.37-2.43-0.44-5.1,2.07-6.39
			c2.85-1.47,4.57,0.92,5.82,2.86c5.29,8.22,13.45,9.97,22.28,10.15c4.94,0.1,9.05-1.98,12.06-5.93c2.47-3.24,3.74-6.81,2.38-10.94
			c-0.38-1.14-0.72-2.3-0.89-3.48c-0.56-3.84-0.13-7.31,4.15-8.85c3.44-1.24,7.21,0.62,9.08,4.72c3.67,8.04,3.46,16.08-0.99,23.74
			C247.51,298.22,238.56,302.8,226.34,302.96z"/>
	</g>
</g>
</svg>
