<?xml version="1.0" encoding="utf-8"?>
<!-- Generator: Adobe Illustrator 24.0.1, SVG Export Plug-In . SVG Version: 6.00 Build 0)  -->
<svg version="1.1" id="Livello_1" xmlns="http://www.w3.org/2000/svg" xmlns:xlink="http://www.w3.org/1999/xlink" x="0px" y="0px"
	 viewBox="0 0 512 512" style="enable-background:new 0 0 512 512;" xml:space="preserve">
<style type="text/css">
	.st0{fill:#F8E75A;}
	.st1{fill:#006E93;}
	.st2{fill:#F9AD98;}
	.st3{fill:#FFCAB8;stroke:#C16A56;stroke-width:6.6328;stroke-linecap:round;stroke-linejoin:round;stroke-miterlimit:10;}
	.st4{fill:none;stroke:#C18500;stroke-width:6.6328;stroke-linecap:round;stroke-linejoin:round;stroke-miterlimit:10;}
	.st5{fill:#D4FFF5;stroke:#602B00;stroke-width:6.6328;stroke-miterlimit:10;}
	.st6{fill:none;stroke:#C16A56;stroke-width:6.6328;stroke-linecap:round;stroke-linejoin:round;stroke-miterlimit:10;}
	.st7{fill:none;stroke:#602B00;stroke-width:6.6328;stroke-miterlimit:10;}
	.st8{fill:#FFCAB8;}
	.st9{fill:#FFFFFF;}
</style>
<g>
	<path class="st0" d="M230.7,73.1c0,0-14.4-21.2-45.3-23.2C135.6,46.6,31.7,86.4,31.7,212.4c0,121.6,59.7,154.8,71.9,144.8
		c12.2-9.9-8.8-39.8-8.8-39.8s36.5,56.4,108.3,55.3c78.9-1.2,109.4-65.2,109.4-65.2s-6.6,22.1,6.6,26.5c14.9,5,55.6-24.2,50.9-139.3
		C365.6,88.6,290.4,55.5,267.2,56.6C246.2,57.6,230.7,73.1,230.7,73.1z"/>
	<path class="st1" d="M343.5,462.3c0,0,6.8-35.6-24.3-61.9c-28.7-24.3-53.8-25-68.5-39.8c-11.1-11.1-75.2-17.7-90.6,0
		c-21.8,25-55.3,11.1-86.2,42c-25.6,25.6-22.1,59.7-22.1,59.7"/>
	<path class="st2" d="M206.4,404.8c32.4,0,48.6-22.3,57.5-35.4c-7-3.2-11.1-6.6-13.3-8.8c-11.1-11.1-17.7-35.4-19.9-55.3
		c-2.2-19.9-42-24.3-46.4,0c-2.9,15.8-8.8,37.6-24.3,55.3c-3.9,4.4-8.1,7.6-12.7,10.1C153.6,381.6,169.1,404.8,206.4,404.8z"/>
	<ellipse class="st3" cx="202.1" cy="212.4" rx="110.4" ry="121.6"/>
	<path class="st0" d="M228.5,93c0,0-2.2,11.1,28.7,42s55.3,24.3,55.3,24.3s21.8-49.8-6.6-59.7C217.4,68.7,228.5,93,228.5,93z"/>
	<path class="st4" d="M227.4,94.1c0,0,8.8,19.9,29.8,40.9c31,31,55.3,24.3,55.3,24.3"/>
	<path class="st5" d="M182.1,194.7c0,29.3-21.3,53.1-47.5,53.1S87,224,87,194.7s21.3-31,47.5-31S182.1,165.4,182.1,194.7z"/>
	<path class="st0" d="M228.5,88.6c0,0,1.6,37.6-51.2,87.3s-97,47.5-97,47.5s-26.5-99.5,42-137.1S228.5,88.6,228.5,88.6z"/>
	<path class="st4" d="M227.8,94.1c0,0,2.3,32.1-50.5,81.8s-97,47.5-97,47.5"/>
	<path class="st5" d="M312.5,194.7c0,29.3-21.3,53.1-47.5,53.1c-26.3,0-47.5-23.8-47.5-53.1s21.3-31,47.5-31
		C291.2,163.8,312.5,165.4,312.5,194.7z"/>
	<path class="st6" d="M249.9,263.7c4.4,14.6-3.9,30-18.5,34.4c-14.6,4.4-30-3.9-34.4-18.5"/>
	<path class="st7" d="M181.9,190.3c0,0,19.4-14.4,35.7,0"/>
	<path class="st8" d="M385.5,457.8v-37.6c0,0-22.1-6.6-37.6-33.2c-15.5-26.5-19.9-55.3-8.8-57.5c11.1-2.2,24.3,31,24.3,31
		s-2.2-95.1,15.5-97.3s13.3,68.5,13.3,68.5s17.7-77.4,33.2-75.2c15.5,2.2-2.2,84-2.2,84s22.9-63.7,36.5-56.4
		c14.4,7.7-14.4,71.9-14.4,71.9s27.6-47.5,34.3-29.8s-27.6,80.7-63,94v37.6H385.5z"/>
	<path class="st6" d="M401,384.9c0,0-8.8-28.7-37.6-24.3"/>
	<path class="st6" d="M377.7,335.1c0,0,19.8-2,37.6,4.4c24.3,8.8,33.2,22.1,33.2,22.1"/>
	<circle class="st9" cx="416.4" cy="104.1" r="33.2"/>
	<circle class="st9" cx="444.1" cy="171.5" r="25.4"/>
	<circle class="st9" cx="394.3" cy="166" r="15.5"/>
</g>
</svg>
