<svg xmlns="http://www.w3.org/2000/svg" width="141.341" height="151.229" viewBox="0 0 141.341 151.229">
  <g id="computer" transform="translate(-12.749)">
    <path id="Path_36" data-name="Path 36" d="M64.192,96.554l-1.076,10.163a2.908,2.908,0,0,0,2.892,3.214H96.76a2.908,2.908,0,0,0,2.892-3.214L98.576,96.554h38.3a10.824,10.824,0,0,0,10.812-10.812V10.812A10.825,10.825,0,0,0,136.88,0H23.561A10.824,10.824,0,0,0,12.749,10.812v74.93A10.824,10.824,0,0,0,23.561,96.554H64.192Zm29.335,7.561H69.24l.8-7.561H92.726ZM23.561,5.817H136.88a5,5,0,0,1,5,5V76.778H18.566V10.812A5,5,0,0,1,23.561,5.817Zm-5,79.925V82.594H141.875v3.148a5,5,0,0,1-5,5H23.561A5,5,0,0,1,18.566,85.742Z" fill="#5a5a5a"/>
    <path id="Path_37" data-name="Path 37" d="M153.329,309.454a2.908,2.908,0,0,0,.095-2.851l-5.744-11.051a2.908,2.908,0,0,0-2.581-1.567H48.4a2.909,2.909,0,0,0-2.581,1.567L40.076,306.6a2.908,2.908,0,0,0,2.581,4.25H150.843A2.908,2.908,0,0,0,153.329,309.454ZM47.446,305.036l2.721-5.235h93.166l2.721,5.235Z" transform="translate(-16.529 -179.981)" fill="#5a5a5a"/>
    <path id="Path_38" data-name="Path 38" d="M319.1,350.982h-4.653A12.229,12.229,0,0,0,302.234,363.2a2.908,2.908,0,0,0,2.908,2.908h23.266a2.908,2.908,0,0,0,2.908-2.908A12.228,12.228,0,0,0,319.1,350.982Zm-10.351,9.306a6.405,6.405,0,0,1,5.7-3.49H319.1a6.406,6.406,0,0,1,5.7,3.49Z" transform="translate(-177.227 -214.876)" fill="#5a5a5a"/>
  </g>
</svg>
