<?xml version="1.0" encoding="utf-8"?>
<!-- Generator: Adobe Illustrator 24.0.1, SVG Export Plug-In . SVG Version: 6.00 Build 0)  -->
<svg version="1.1" id="Livello_1" xmlns="http://www.w3.org/2000/svg" xmlns:xlink="http://www.w3.org/1999/xlink" x="0px" y="0px"
	 viewBox="0 0 512 512" style="enable-background:new 0 0 512 512;" xml:space="preserve">
<style type="text/css">
	.st0{fill:#F8E75A;}
	.st1{fill:#FFFFFF;}
	.st2{fill:none;stroke:#000000;stroke-width:5.5641;stroke-linecap:round;stroke-linejoin:round;stroke-miterlimit:10;}
	.st3{fill:#DB5663;}
	.st4{fill:#006E93;}
	.st5{fill:none;stroke:#898989;stroke-width:4.4219;stroke-linecap:round;stroke-linejoin:round;stroke-miterlimit:10;}
</style>
<g>
	<path class="st0" d="M194.6,90.2c0,0-15.5-19.9,0-35.4s37.6,2.2,61.9,0s48.6-26.5,79.6-15.5s8.8,46.4,8.8,46.4l-8.8,325
		c0,0,53.1,6.6,55.3,28.7c2.2,22.1-13.3,17.7-31,22.1c-17.7,4.4-31,33.2-70.8,33.2s-75.2-39.8-106.1-37.6s-53.1,15.5-66.3,4.4
		c-13.3-11.1-13.3-46.4,4.4-61.9C139.4,384.2,194.6,90.2,194.6,90.2z"/>
	<ellipse class="st0" cx="380.4" cy="48.2" rx="19.9" ry="17.7"/>
	<circle class="st0" cx="348.3" cy="27.2" r="9.9"/>
	<path class="st1" d="M477.9,428.5H267.3c-2.3,0-4.1-1.8-4.1-4.1V81c0-2.3,1.8-4.1,4.1-4.1h210.6c2.3,0,4.1,1.8,4.1,4.1v343.3
		C482.1,426.6,480.2,428.5,477.9,428.5z"/>
	<path class="st1" d="M244.7,428.5H34.1c-2.3,0-4.1-1.8-4.1-4.1V81c0-2.3,1.8-4.1,4.1-4.1h210.6c2.3,0,4.1,1.8,4.1,4.1v343.3
		C248.8,426.6,247,428.5,244.7,428.5z"/>
	<line class="st2" x1="234.4" y1="102.3" x2="276.5" y2="102.3"/>
	<line class="st2" x1="234.4" y1="139.4" x2="276.5" y2="139.4"/>
	<line class="st2" x1="234.4" y1="176.4" x2="276.5" y2="176.4"/>
	<line class="st2" x1="234.4" y1="213.4" x2="276.5" y2="213.4"/>
	<line class="st2" x1="234.4" y1="250.5" x2="276.5" y2="250.5"/>
	<line class="st2" x1="234.4" y1="287.5" x2="276.5" y2="287.5"/>
	<line class="st2" x1="234.4" y1="324.5" x2="276.5" y2="324.5"/>
	<line class="st2" x1="234.4" y1="361.6" x2="276.5" y2="361.6"/>
	<line class="st2" x1="234.4" y1="398.6" x2="276.5" y2="398.6"/>
	<path class="st0" d="M193.2,155.4H52.4c-1.4,0-2.6-1.2-2.6-2.6v-47.9c0-1.4,1.2-2.6,2.6-2.6h140.8c1.4,0,2.6,1.2,2.6,2.6v47.9
		C195.8,154.2,194.6,155.4,193.2,155.4z"/>
	<path class="st0" d="M454.1,250.5H328.8c-1.4,0-2.6-1.2-2.6-2.6v-52.3c0-1.4,1.2-2.6,2.6-2.6h125.3c1.4,0,2.6,1.2,2.6,2.6v52.3
		C456.6,249.3,455.5,250.5,454.1,250.5z"/>
	<path class="st3" d="M454.1,403H373c-1.4,0-2.6-1.2-2.6-2.6v-59c0-1.4,1.2-2.6,2.6-2.6h81.1c1.4,0,2.6,1.2,2.6,2.6v59
		C456.6,401.9,455.5,403,454.1,403z"/>
	<path class="st3" d="M52.4,334.5h78.9c1.4,0,2.6-1.2,2.6-2.6V213.3c0-1.4-1.2-2.6-2.6-2.6H52.4c-1.4,0-2.6,1.2-2.6,2.6v118.7
		C49.8,333.3,51,334.5,52.4,334.5z"/>
	<path class="st4" d="M197.6,403H52.4c-1.4,0-2.6-1.2-2.6-2.6v-36.8c0-1.4,1.2-2.6,2.6-2.6h145.2c1.4,0,2.6,1.2,2.6,2.6v36.8
		C200.2,401.9,199,403,197.6,403z"/>
	<path class="st4" d="M454.1,177.5h-89.9c-1.4,0-2.6-1.2-2.6-2.6v-70c0-1.4,1.2-2.6,2.6-2.6h89.9c1.4,0,2.6,1.2,2.6,2.6v70
		C456.6,176.4,455.5,177.5,454.1,177.5z"/>
	<line class="st5" x1="56.5" y1="181.9" x2="200.2" y2="181.9"/>
	<line class="st5" x1="306.3" y1="157.6" x2="339.5" y2="157.6"/>
	<line class="st5" x1="306.3" y1="142.1" x2="339.5" y2="142.1"/>
	<line class="st5" x1="306.3" y1="126.7" x2="339.5" y2="126.7"/>
	<line class="st5" x1="306.3" y1="111.2" x2="339.5" y2="111.2"/>
	<line class="st5" x1="310.7" y1="279.2" x2="452.2" y2="279.2"/>
	<line class="st5" x1="310.7" y1="303.5" x2="439" y2="303.5"/>
	<line class="st5" x1="152.6" y1="321.2" x2="192.4" y2="321.2"/>
	<line class="st5" x1="153.7" y1="299.1" x2="191.3" y2="299.1"/>
	<line class="st5" x1="151.5" y1="279.2" x2="193.5" y2="279.2"/>
	<line class="st5" x1="311.8" y1="387.6" x2="351.6" y2="387.6"/>
	<line class="st5" x1="312.9" y1="365.4" x2="350.5" y2="365.4"/>
	<line class="st5" x1="310.7" y1="345.5" x2="352.7" y2="345.5"/>
	<line class="st5" x1="71.9" y1="197.4" x2="195.8" y2="197.4"/>
</g>
</svg>
