<?xml version="1.0" encoding="utf-8"?>
<!-- Generator: Adobe Illustrator 24.0.0, SVG Export Plug-In . SVG Version: 6.00 Build 0)  -->
<svg version="1.1" id="Livello_1" xmlns="http://www.w3.org/2000/svg" xmlns:xlink="http://www.w3.org/1999/xlink" x="0px" y="0px"
	 viewBox="0 0 512 512" style="enable-background:new 0 0 512 512;" xml:space="preserve">
<style type="text/css">
	.st0{fill:#FFFFFF;}
</style>
<g id="vxsjgL.tif_1_">
	<g>
		<path class="st0" d="M31.3,111.4c49.2,0,98.3,0,147.4,0c8.6,1.5,17.3,2.3,25.8,4.5c19,4.7,34.7,14.6,44.9,31.7
			c8.6,14.5,10.7,30.4,9.5,46.8c-1.1,14.7-5.7,28.2-16.7,38.3c-5.2,4.8-11.3,8.6-17.3,13.1c1.8,0.8,3.7,1.7,5.7,2.5
			c16.2,7.4,27.5,19.5,33.3,36.4c5.6,16,6.4,32.5,2.3,48.8c-7.8,31.7-27.1,53.1-59,62c-15.4,4.3-31.4,5.2-47.3,5.2
			c-41.3,0-82.4,0-123.7,0c-1.6,0-3.1,0-4.9,0C31.3,303.8,31.3,207.6,31.3,111.4z M98.3,349.7c0.6,0.3,0.9,0.5,1.2,0.5
			c24-0.2,48,0.5,71.9-0.8c22.2-1.2,33.5-12.9,36.1-34.3c2.1-17.2-4.1-30.9-17.8-36.5c-7.1-2.9-15.2-4.7-22.9-4.9
			c-21.9-0.7-43.8-0.4-65.8-0.4c-0.8,0-1.7,0.2-2.6,0.3C98.3,299.2,98.3,324.4,98.3,349.7z M98.3,225.3c21.2,0,41.9,0.1,62.7-0.1
			c5.1,0,10.3-0.6,15.2-1.8c11.2-2.5,21.3-7.2,24.1-19.9c1.2-5.2,1.6-10.8,1-16c-1.2-12.4-7.6-19.6-19.7-22.6
			c-5.1-1.3-10.4-2.4-15.5-2.5c-21.8-0.5-43.5-0.6-65.3-0.8c-0.8,0-1.7,0.3-2.4,0.5C98.3,183.1,98.3,203.9,98.3,225.3z"/>
		<path class="st0" d="M480.7,303.3c-50.2,0-100.2,0-150.4,0c-2.9,18.3,10.1,40.3,28.1,47.1c14.6,5.5,29.4,6,44,0
			c7.8-3.2,13.6-8.8,18-16.1c0.9-1.6,3.2-3.1,4.9-3.2c16.6-0.2,33.3-0.1,50-0.1c0.6,0,1.2,0.1,2.8,0.4c-1.7,5.2-2.6,10.4-5,14.9
			c-12.5,24.1-31.8,40.7-58.2,47.8c-26.3,7.1-52.6,6.6-78.3-3.3c-35.9-14-56-40.2-60.2-78.5c-2.4-21.8-2.1-43.5,4.3-64.6
			c10.7-34.9,33.8-57.1,69.4-65.3c28.1-6.6,55.5-4.2,81.4,9.2c20.8,10.9,34.3,28.4,41.7,50.2c3.5,10.4,4.5,21.6,6.6,32.5
			c0.3,1.3,0.5,2.5,0.8,3.8C480.7,286.4,480.7,294.9,480.7,303.3z M331.3,267.2c31.1,0,61.9,0,92.7,0c-1.6-26.8-18.9-43.3-45.8-43.6
			C350.2,223.2,335.1,240.2,331.3,267.2z"/>
		<path class="st0" d="M319.3,152c0-9.5,0-18.8,0-28.4c38.7,0,77.2,0,116,0c0,9.4,0,18.7,0,28.4C396.7,152,358.3,152,319.3,152z"/>
	</g>
</g>
</svg>
