<?xml version="1.0" encoding="utf-8"?>
<!-- Generator: Adobe Illustrator 23.0.6, SVG Export Plug-In . SVG Version: 6.00 Build 0)  -->
<svg version="1.1" id="Livello_1" xmlns="http://www.w3.org/2000/svg" xmlns:xlink="http://www.w3.org/1999/xlink" x="0px" y="0px"
	 viewBox="0 0 512 512" style="enable-background:new 0 0 512 512;" xml:space="preserve">
<style type="text/css">
	.st0{fill:#FFFFFF;}
	.st1{fill:#006E93;}
	.st2{fill:#DB5663;}
	.st3{fill:#F8E75A;}
</style>
<g>
	<g>
		<rect x="25.29" y="77.09" class="st0" width="220.72" height="351.98"/>
		<rect x="266.65" y="72.47" class="st0" width="217.38" height="352.16"/>
		<path class="st1" d="M185.39,437.45c18.7,0,37.39,0,56.09,0c1.99,0,3.94-0.05,5.9-0.66c3.47-1.09,5.05-3.31,5.01-6.91
			c-0.07-7.35,0.02-14.71-0.1-22.06c-0.04-2.3,0.47-3.34,3.07-3.35c2.7-0.01,3.02,1.22,2.98,3.43c-0.1,6.48,0.01,12.96-0.06,19.44
			c-0.02,2.19,0.46,4.21,1.4,6.11c1.17,2.36,3.23,3.77,5.78,3.12c3.11-0.8,6.18-0.58,9.27-0.58c36.77-0.03,73.54-0.02,110.31-0.02
			c1.72,0,3.32-0.03,5.01-0.96c2.41-1.33,4.45-0.21,6.06,1.98c7.02,9.6,0.76,23.95-11.68,26.54c-4.15,0.86-8.28,0.89-12.57,0.36
			c-7.81-0.97-14.97,1.66-21.65,5.54c-7.21,4.19-13.92,9.15-20.77,13.88c-8.81,6.08-18.4,10.37-28.89,12.55
			c-11.94,2.48-23.66,1.15-35.28-2.13c-15.72-4.44-29.85-12.29-43.89-20.33c-7.35-4.2-14.54-8.8-22.99-10.46
			c-10.23-2-20.29-0.81-30.14,2.38c-6.62,2.14-13.08,4.89-19.95,6.12c-7.01,1.25-13.9,0.75-20.18-3.12
			c-10.34-6.36-12.78-16.97-11.56-28.28c0.26-2.44,0.67-4.94,1.96-7.14c0.8-1.36,1.82-2.52,3.59-2.02c1.97,0.56,1.93,2.28,1.4,3.68
			c-1.24,3.27,0.92,2.88,2.82,2.88c19.69,0,39.39,0,59.08,0C185.39,437.42,185.39,437.43,185.39,437.45z"/>
		<path class="st2" d="M84.79,327.46c-8.08,0.29-16.18,0.38-24.23,0.97c-2.57,0.19-2.8-0.49-2.82-2.63
			c-0.12-16.06-0.38-32.11-0.51-48.17c-0.11-13.45-0.05-26.9-0.16-40.35c-0.03-3.85-0.39-7.7-0.59-11.54
			c-0.02-1.37,0.05-2.74-0.09-4.09c-0.23-2.2-0.77-4.25-3.64-4.25c-0.05-1.8,0.63-3.24,2.07-4.32c2.47,1.31,5.09,1.56,7.87,1.54
			c11.3-0.11,22.6-0.06,33.91-0.11c1.32-0.01,2.75,0.39,3.94-0.61c10.71,0.06,21.41-0.12,32.09-0.79c2.89-0.18,3.72,0.61,3.81,3.63
			c0.97,33.73,0.41,67.47,0.63,101.21c0.02,2.55,0.53,4.79,2.16,6.89c1.82,2.34,1,4.44-1.85,5.63c-0.97-3.33-3.62-3.7-6.5-3.69
			c-14.18,0.02-28.35,0.03-42.53,0.07C87.15,326.83,85.84,326.48,84.79,327.46z"/>
		<path class="st3" d="M98.64,156.24c-12.08,0-22.04-0.09-32,0.06c-2.79,0.04-3.6-0.77-3.6-3.57c0.01-11.94,0.34-23.87,0.75-35.8
			c0.07-1.94-1.01-4.63-0.08-5.68c1.41-1.61,4.23-0.64,6.42-0.57c43.94,1.41,87.88,0.42,131.82,0.65c3.02,0.02,4.14,0.7,4.02,3.91
			c-0.44,12.42-1.12,24.85-0.85,37.29c0.11,5.15,0.03,5.42-5.24,5.08c-22.39-1.43-44.81,0.07-67.18-0.87
			C120.63,156.24,108.58,156.67,98.64,156.24z"/>
		<path class="st3" d="M392.89,243.77c-14.82,0-29.64-0.14-44.46,0.05c-8.57,0.11-17.14,0.71-25.7,1.22
			c-4.58,0.27-4.44,0.34-4.71-4.13c-0.73-12.31-0.42-24.64-0.69-36.96c-0.06-2.87-0.68-5.66-1.3-8.45c-0.38-1.7-0.23-2.51,2.27-2.2
			c5.78,0.73,11.65,0.99,17.48,1.01c35.37,0.12,70.74,0.12,106.11,0.13c1.72,0,2.63-0.19,2.2,2.34c-0.62,3.64-0.44,7.43-0.36,11.16
			c0.22,10.7-0.64,21.42,0.58,32.09c0.32,2.82-0.85,3.64-3.6,3.62c-15.94-0.1-31.88-0.05-47.83-0.05
			C392.89,243.67,392.89,243.72,392.89,243.77z"/>
		<path class="st1" d="M424.95,168.13c-12.57-0.65-28.35,1.04-44.16,0.84c-0.37,0-0.75-0.01-1.12,0.02
			c-7.7,0.68-7.28,0.65-7.81-6.86c-0.83-11.7-0.13-23.4-0.79-35.07c-0.3-5.34-0.32-10.68-0.63-16c-0.17-2.88,0.87-3.63,3.62-3.51
			c27.01,1.11,54.03,0.91,81.05,0.82c2.35-0.01,3,0.79,2.95,3.02c-0.34,15.05-0.51,30.11-0.97,45.16c-0.09,2.83-0.74,5.67-0.53,8.53
			c0.19,2.58-1,3.13-3.32,3.1C444.9,168.07,436.55,168.13,424.95,168.13z"/>
		<path class="st2" d="M371.07,403.65c-2.08,0.05-3.41-1.06-4.34-2.8c1.3-2.07,1.61-4.32,1.55-6.74
			c-0.12-5.57,0.02-11.14-0.12-16.71c-0.06-2.42,0.61-4.94-0.62-7.27c-0.2-10.2-0.32-20.39-0.64-30.59
			c-0.08-2.62,0.59-3.31,3.31-3.17c25.49,1.3,51,1.07,76.51,0.96c3.2-0.01,3.9,0.93,3.79,3.96c-0.65,18.25-1.13,36.5-1.6,54.75
			c-0.04,1.73-0.5,2.59-2.32,2.39c-0.49-0.06-1,0-1.49-0.01c-22.15-0.4-44.27,0.64-66.41,0.81
			C375.42,399.44,371.81,399.07,371.07,403.65z"/>
		<path class="st1" d="M200.3,366.47c-0.43,8.7-0.4,17.38-1.06,26.04c-0.36,4.72-0.08,4.62-4.74,4.59
			c-16.19-0.09-32.39,0.25-48.57-0.22c-12.56-0.36-25.11-0.65-37.66-0.55c-16.41,0.13-32.83,0.45-49.24,0.69
			c-0.5,0.01-1,0.07-1.49,0.04c-1.58-0.08-2.99,2.32-4.37,0.86c-1.09-1.16,0.26-3.02,0.25-4.63c-0.09-8.97,0.11-17.93-0.05-26.9
			c-0.05-2.96,0.8-4.02,3.78-3.73c16.1,1.53,32.25,1.62,48.41,1.56c30.39-0.11,60.77-0.07,91.16-0.03
			C198.28,364.21,200.84,363.15,200.3,366.47z"/>
		<path class="st1" d="M217.62,69.43c-7.72,0-15.45,0.09-23.17-0.06c-2.62-0.05-4.32,0.63-4.95,3.31c-0.39,1.65-1.13,3.41-3.06,3.14
			c-2.17-0.3-2.21-2.32-2.2-4.14c0.01-3.66,1.73-6.75,3.48-9.73c5.26-8.98,12.71-14.22,23.61-14.31c8.43-0.07,16.59,1.6,24.64,3.43
			c15.8,3.61,30.77,1.68,45.43-4.72c9.67-4.22,19.16-8.96,29.7-10.79c10.37-1.8,20.71-2.52,30.93,0.86
			c14.03,4.65,19.52,15.26,15.23,29.52c-0.57,1.9-1.18,3.84-2.17,5.53c-0.97,1.67-2.68,2.72-4.74,2.28
			c-1.65-0.35-2.98-1.19-3.08-3.22c-0.13-2.68-2.26-1.81-3.67-1.81c-19.31-0.05-38.62-0.03-57.93-0.03c-5.23,0-10.46,0-15.7,0
			c-8.25,0-11.71,3.51-11.65,11.75c0.03,3.99-0.1,7.98,0.06,11.96c0.09,2.38-0.61,3.27-3.13,3.3c-2.71,0.03-3.04-1.25-2.98-3.44
			c0.11-3.86,0.04-7.72,0.03-11.59c-0.02-7.59-3.44-11.13-11.13-11.24C233.32,69.35,225.47,69.44,217.62,69.43z"/>
		<path class="st1" d="M407.14,46.73c0,10.15-9.61,18.45-21.48,18.15c-11.39-0.29-19.49-7.94-19.35-18.13
			c0.14-9.59,7.42-19.78,20.6-19.86C398.52,26.82,407.15,35.32,407.14,46.73z"/>
		<path class="st1" d="M365.2,24.49c0.06,4.83-4.18,8.87-9.46,9.02c-5.38,0.14-10.46-3.89-10.58-8.4
			c-0.13-5.08,5.14-10.06,10.82-10.21C360.97,14.76,365.12,19.08,365.2,24.49z"/>
		<path class="st1" d="M251.65,191.73c0-3.36,0.04-6.71-0.02-10.07c-0.03-2.02,0.79-3.17,2.86-2.89c1.93,0.26,4.54-0.32,4.53,2.99
			c-0.02,6.84-0.1,13.68,0.04,20.51c0.06,3.1-1.98,2.51-3.77,2.57c-1.9,0.06-3.81,0.33-3.67-2.67c0.17-3.47,0.04-6.96,0.04-10.44
			C251.66,191.73,251.65,191.73,251.65,191.73z"/>
		<path class="st1" d="M259.01,155.77c0,3.23-0.1,6.47,0.04,9.69c0.09,2.22-0.93,2.88-2.91,2.67c-1.82-0.19-4.41,0.8-4.45-2.4
			c-0.09-6.83-0.03-13.67-0.03-20.5c0-1.74,1.06-2.71,2.61-2.29c1.75,0.48,4.66-0.57,4.73,2.77
			C259.06,149.06,259.01,152.41,259.01,155.77z"/>
		<path class="st1" d="M259.01,119.53c0,3.11-0.13,6.23,0.04,9.33c0.16,3.05-1.85,2.65-3.7,2.64c-1.82-0.01-3.81,0.49-3.75-2.59
			c0.14-6.22,0.14-12.45-0.02-18.66c-0.08-3.05,1.87-2.64,3.71-2.62c1.8,0.02,3.9-0.52,3.75,2.57
			C258.89,113.3,259.01,116.42,259.01,119.53z"/>
		<path class="st1" d="M252.32,229.64c0-3.48,0.09-6.96-0.03-10.43c-0.09-2.48,1.45-2.48,3.16-2.4c1.65,0.07,3.62-0.54,3.59,2.34
			c-0.08,7.2-0.07,14.41-0.01,21.61c0.02,2.62-1.77,2.22-3.33,2.2c-1.53-0.02-3.42,0.51-3.37-2.15c0.06-3.72,0.02-7.45,0.02-11.18
			C252.33,229.64,252.32,229.64,252.32,229.64z"/>
		<path class="st1" d="M258.33,378.36c0,3.73-0.1,7.47,0.04,11.2c0.08,2.23-0.62,3.11-2.95,3.07c-2.11-0.04-3.17-0.44-3.13-2.88
			c0.13-7.59,0.13-15.18,0-22.77c-0.04-2.44,1.02-2.84,3.13-2.88c2.33-0.05,3.04,0.84,2.95,3.07
			C258.23,370.89,258.33,374.62,258.33,378.36z"/>
		<path class="st1" d="M258.33,339.63c0,3.24-0.13,6.48,0.04,9.71c0.12,2.43-1,2.92-3.13,2.89c-1.94-0.03-2.99-0.4-2.95-2.67
			c0.11-6.72,0.11-13.45,0-20.17c-0.03-2.23,0.94-2.71,2.92-2.71c2.09,0,3.28,0.41,3.16,2.87
			C258.21,332.9,258.33,336.27,258.33,339.63z"/>
		<path class="st1" d="M252.33,302.52c0-3.11,0.08-6.23-0.03-9.34c-0.07-2.17,1.15-2.4,2.85-2.36c1.68,0.05,3.24-0.11,3.2,2.4
			c-0.1,6.47-0.07,12.95-0.03,19.43c0.02,2.31-1.51,2.15-3.04,2.17c-1.57,0.02-3.04,0.07-2.98-2.22
			C252.4,309.25,252.34,305.88,252.33,302.52z"/>
		<path class="st1" d="M258.34,266.41c-0.01,3.11-0.09,6.23,0.02,9.34c0.09,2.47-1.45,2.42-3.18,2.44
			c-1.68,0.02-2.91-0.15-2.88-2.34c0.08-6.23,0.08-12.46,0-18.68c-0.03-2.3,1.41-2.19,2.97-2.23c1.79-0.04,3.2,0.08,3.1,2.5
			C258.24,260.43,258.35,263.42,258.34,266.41z"/>
		<path class="st2" d="M100.53,213.88c-1.19,1-2.62,0.6-3.94,0.61c-11.3,0.05-22.61,0-33.91,0.11c-2.78,0.03-5.4-0.22-7.87-1.54
			c0.7-2.52,2.56-3.59,4.98-3.69c2.1-0.08,2.96,1.3,3.42,3.22c0.46,1.95,2.23,1.18,3.44,1.19
			C77.95,213.86,89.24,213.86,100.53,213.88z"/>
		<path class="st2" d="M84.79,327.46c1.05-0.97,2.36-0.63,3.56-0.63c14.18-0.04,28.35-0.05,42.53-0.07c2.87,0,5.52,0.36,6.5,3.69
			c-1.61,1.46-3.4,0.97-3.99-0.64c-0.95-2.63-2.81-2.31-4.76-2.31C114.02,327.48,99.41,327.47,84.79,327.46z"/>
		<path class="st2" d="M367.55,370.13c1.23,2.33,0.56,4.85,0.62,7.27c0.14,5.57,0,11.14,0.12,16.71c0.05,2.42-0.26,4.67-1.55,6.74
			c-1.77-1.24-2.14-3.17-0.75-4.44c1.7-1.55,1.52-3.24,1.52-5.05C367.53,384.28,367.53,377.2,367.55,370.13z"/>
		<path class="st2" d="M371.07,403.65c0.74-4.58,4.35-4.21,7.62-4.42C378.36,403.94,376.32,405.12,371.07,403.65z"/>
		<path class="st2" d="M52.74,217.38c2.87,0,3.4,2.05,3.64,4.25c0.14,1.35,0.07,2.73,0.09,4.09
			C52.33,224.96,51.33,222.71,52.74,217.38z"/>
	</g>
	<g>
		<path d="M19.65,254.13c0-57.33,0-114.67,0-172c0-2.98-0.23-6.03,1.62-8.66c2.52-3.57,6.01-4.8,10.34-4.78
			c28.67,0.09,57.33,0.05,86,0.05c39.76,0,79.52,0.01,119.28-0.02c3.15,0,6.19,0.34,9.18,1.39c4.4,1.55,6.18,3.79,6.28,8.58
			c0.09,4.49,0.06,8.97,0.02,13.46c-0.02,2.04,0.5,3.3,2.92,3.29c2.39-0.01,3-1.19,2.96-3.26c-0.07-4.36-0.03-8.72-0.11-13.08
			c-0.12-5.83,3.79-10.17,9.66-10.58c0.87-0.06,1.74-0.04,2.62-0.04c69.18,0,138.35,0,207.53,0.01c1.25,0,2.5-0.02,3.73,0.12
			c6.44,0.74,10.78,5.62,10.78,12.1c0,115.79,0,231.58-0.01,347.37c0,1.36-0.07,2.76-0.39,4.07c-0.86,3.47-3.31,5.14-6.88,4.99
			c-3.86-0.16-7.71-0.31-11.57-0.36c-66.55-0.79-133.1-0.57-199.64-0.57c-2.24,0-4.49,0.07-6.7,0.38c-5.63,0.78-8.86-1.7-9.02-7.51
			c-0.2-6.97-0.08-13.96-0.13-20.94c-0.01-1.47,0.22-3.12-2.01-3.32c-2.19-0.2-3.65,0.25-3.56,2.92c0.23,6.97-0.45,13.94,0.33,20.91
			c0.56,5.04-2.79,8.77-8.26,8.82c-14.71,0.13-29.41,0.08-44.12,0.08c-56.59-0.01-113.17-0.02-169.76-0.02
			c-1.12,0-2.24,0.13-3.36,0.2c-4.06,0.27-6.7-1.6-7.51-5.62c-0.36-1.81-0.31-3.72-0.31-5.58c-0.01-57.46-0.01-114.92-0.01-172.38
			C19.57,254.13,19.61,254.13,19.65,254.13z M438.36,421.62c10.84,0,21.69,0.02,32.53-0.01c7.79-0.02,7.02,0.75,7.07-6.99
			c0.67-108.55-1.56-217.11,1.49-325.65c0.15-5.2,0.08-5.18-5.08-5.23c-33.27-0.32-66.54,0.29-99.81-0.46
			c-33.25-0.76-66.53,0.65-99.76-1.53c-1.7-0.11-3.65,0.2-3.45,2.39c0.33,3.51-1.8,7.42,1.46,10.45c0.42,0.39,1.45,0.18,2.19,0.18
			c2.62,0,5.24-0.07,7.85-0.03c5.24,0.09,8.63,2.78,8.7,6.81c0.06,4.04-3.36,6.88-8.52,6.98c-2.74,0.05-5.49,0.06-8.22-0.07
			c-2.46-0.11-3.7,0.67-3.63,3.37c0.13,5.23,0.09,10.47,0.02,15.7c-0.03,2.22,0.86,3.17,3.1,3.11c3.74-0.11,7.48-0.09,11.22-0.09
			c5.26,0,8.49,2.6,8.52,6.8c0.02,4.13-3.24,6.86-8.52,6.98c-3.61,0.08-7.23,0.05-10.84-0.03c-2.25-0.05-3.52,0.62-3.48,3.16
			c0.09,5.61,0.06,11.22,0.01,16.83c-0.02,1.89,0.57,2.62,2.64,2.5c3.98-0.24,7.97-0.27,11.96-0.17c5.12,0.12,8.18,2.76,8.22,6.83
			c0.04,4.08-3.01,6.69-8.17,6.82c-3.61,0.09-7.23,0.1-10.84-0.05c-2.63-0.11-3.91,0.69-3.83,3.57c0.15,5.61,0.1,11.22,0.02,16.83
			c-0.04,2.35,0.8,3.47,3.26,3.36c2.61-0.12,5.23-0.08,7.85-0.06c5.76,0.04,9.34,2.76,9.26,7.01c-0.08,4.14-3.55,6.76-9.08,6.8
			c-2.49,0.02-4.99,0.07-7.48-0.08c-2.63-0.16-3.9,0.69-3.82,3.57c0.15,5.85,0.1,11.72,0.02,17.57c-0.03,2.37,0.85,3.43,3.28,3.34
			c2.99-0.12,5.98-0.13,8.97-0.04c4.88,0.15,8.2,3.09,8.11,7.01c-0.09,3.8-3.31,6.59-7.99,6.75c-2.99,0.1-5.98,0.06-8.97-0.04
			c-2.32-0.08-3.45,0.72-3.41,3.21c0.1,5.23,0.09,10.47,0,15.7c-0.04,2.42,0.93,3.36,3.33,3.28c3.86-0.13,7.73-0.08,11.59-0.11
			c1.63-0.01,3.25,0.05,4.66,1.05c2.45,1.74,3.71,4.06,3.07,7.08c-0.8,3.72-3.51,5.39-7.04,5.58c-3.98,0.21-7.98,0.14-11.96,0.05
			c-2.45-0.06-3.71,0.68-3.64,3.39c0.12,5.48,0.09,10.97,0.02,16.45c-0.03,2.1,0.65,2.79,2.86,2.64c3.97-0.27,7.98-0.27,11.96-0.15
			c5.02,0.15,8.12,2.99,8,7.04c-0.11,3.95-3.06,6.46-8.02,6.6c-3.86,0.11-7.73,0.05-11.59-0.03c-2.16-0.04-3.22,0.75-3.19,3.04
			c0.07,5.86,0.07,11.72,0,17.57c-0.03,2.22,0.86,3.18,3.1,3.12c3.11-0.09,6.24-0.14,9.35-0.02c4.66,0.18,7.87,3.05,7.89,6.84
			c0.02,3.8-3.2,6.72-7.83,6.89c-3.11,0.12-6.23,0.06-9.35-0.03c-2.19-0.06-3.17,0.8-3.15,3.07c0.07,6.85,0.07,13.71,0,20.57
			c-0.02,2.26,0.95,3.13,3.15,3.07c3.11-0.09,6.24-0.14,9.35-0.02c4.67,0.19,7.86,3.07,7.84,6.89c-0.02,3.8-3.24,6.68-7.89,6.84
			c-3.11,0.11-6.23,0.06-9.35-0.03c-2.24-0.07-3.15,0.89-3.1,3.12c0.07,3.11,0.02,6.23-0.07,9.35c-0.16,5.2-0.08,5.39,4.98,5.33
			c18.19-0.24,36.38-0.42,54.56-0.6C366.58,422.23,402.47,421.88,438.36,421.62z M32.49,253.34c0.03,0,0.06,0,0.09,0
			c0,55.47,0.03,110.93-0.07,166.4c-0.01,3.72,0.95,5.02,4.82,4.88c18.04-0.62,36.09-1.11,54.15-1.4c25.66-0.42,51.33,0.08,77-0.68
			c17.68-0.52,35.4-0.14,53.09-0.16c4.61-0.01,9.23-0.15,13.83,0.04c3.13,0.13,4.24-1.07,4.04-4.13c-0.2-3.1-0.25-6.24-0.01-9.34
			c0.28-3.66-0.9-5.36-4.79-5.01c-2.47,0.22-4.99,0.04-7.47-0.12c-3.8-0.24-6.22-2.27-6.31-5.12c-0.09-2.99,2.42-5.19,6.39-5.41
			c2.98-0.17,5.98-0.21,8.97-0.19c2.21,0.01,3.14-0.95,3.13-3.16c-0.05-7.73-0.05-15.45-0.01-23.18c0.01-2.21-0.94-3.16-3.14-3.14
			c-3.11,0.02-6.24,0-9.34-0.22c-3.72-0.26-6.23-2.53-5.97-5.39c0.32-3.51,2.79-4.84,5.92-5.07c2.98-0.22,5.98-0.27,8.97-0.2
			c2.51,0.05,3.62-0.89,3.59-3.5c-0.1-6.6-0.1-13.21,0-19.82c0.04-2.46-0.99-3.33-3.34-3.29c-2.74,0.05-5.49-0.02-8.22-0.2
			c-2.94-0.2-5.61-1.15-5.71-4.66c-0.11-3.56,2.45-5.05,5.51-5.47c2.83-0.38,5.72-0.36,8.58-0.36c2.15,0,3.2-0.77,3.18-3.07
			c-0.07-6.36-0.08-12.71,0.01-19.07c0.03-2.32-1.04-3.04-3.18-3.03c-3.49,0.02-6.98-0.01-10.47-0.2c-4.19-0.23-6.83-2.48-6.78-5.54
			c0.05-2.88,2.61-4.71,6.75-5.06c3.6-0.31,7.21,0.1,10.81-0.53c1.92-0.33,2.89-1.01,2.87-3.07c-0.07-6.11-0.06-12.21,0-18.32
			c0.02-2.23-0.97-3.14-3.16-3.13c-2.99,0.02-5.99-0.01-8.97-0.19c-3.99-0.23-6.48-2.43-6.37-5.43c0.11-2.84,2.54-4.88,6.33-5.09
			c2.98-0.17,5.98-0.21,8.97-0.19c2.15,0.01,3.22-0.82,3.21-3.08c-0.05-6.98-0.06-13.96,0.02-20.94c0.03-2.49-1.17-3.26-3.45-3.23
			c-2.99,0.04-5.99,0-8.97-0.19c-3.74-0.25-6.14-2.44-6.1-5.3c0.04-2.86,2.45-4.97,6.22-5.2c3.11-0.19,6.23-0.2,9.34-0.21
			c2.03-0.01,2.95-0.91,2.94-2.95c-0.02-6.86-0.05-13.71,0.04-20.57c0.03-2.33-1.06-3.05-3.19-3.04c-2.74,0.02-5.49-0.02-8.22-0.2
			c-3.08-0.2-5.9-1.14-5.9-4.86c0-3.53,2.65-4.94,5.69-5.33c2.71-0.35,5.47-0.37,8.21-0.3c2.62,0.06,3.49-1.06,3.44-3.59
			c-0.11-6.11-0.1-12.22,0-18.32c0.04-2.45-0.97-3.31-3.33-3.28c-3.61,0.04-7.24,0.01-10.84-0.23c-3.92-0.26-6.43-2.62-6.33-5.58
			c0.1-2.77,2.58-4.62,6.45-4.97c3.72-0.34,7.45,0.04,11.18-0.55c2.22-0.35,2.93-1.34,2.9-3.44c-0.07-5.86-0.07-11.72,0.02-17.57
			c0.04-2.58-1.07-3.58-3.59-3.52c-2.86,0.06-5.74-0.01-8.6-0.16c-3.99-0.22-6.51-2.38-6.45-5.35c0.06-2.97,2.57-4.98,6.62-5.2
			c1.74-0.1,3.49-0.06,5.23-0.1c6.83-0.14,6.66-0.15,6.85-7.1c0.1-3.57-1.06-4.7-4.67-4.72c-33.89-0.18-67.78,0.41-101.68-0.41
			c-22.92-0.55-45.87-0.08-68.8-0.26c-8.58-0.07-17.18-0.47-25.74-1.11c-5.9-0.44-6.18-0.48-6.18,5.41
			C32.49,143.15,32.49,198.25,32.49,253.34z M258.12,378.66c0-3.61-0.02-7.21,0.01-10.82c0.01-1.88-0.09-3.45-2.68-3.48
			c-2.45-0.03-2.9,1.22-2.89,3.27c0.04,7.21,0.03,14.43,0,21.64c-0.01,1.88,0.42,3.06,2.67,3.1c2.42,0.04,2.94-1.19,2.9-3.26
			C258.07,385.62,258.12,382.14,258.12,378.66z M252.54,229.66c0,3.35,0.03,6.7-0.01,10.05c-0.03,1.89,0.46,3.04,2.69,3.07
			c2.31,0.03,3.05-1.02,3.04-3.16c-0.05-6.57-0.04-13.15-0.01-19.72c0.01-2.03-0.88-2.86-2.93-2.87c-2.15-0.01-2.83,0.99-2.8,2.96
			C252.58,223.21,252.53,226.44,252.54,229.66z M258.12,339.52c0-3.24-0.05-6.48,0.02-9.71c0.04-2.06-0.85-2.91-2.91-2.89
			c-1.94,0.02-2.66,0.91-2.65,2.75c0.03,6.47,0.04,12.95,0,19.42c-0.01,2.05,0.79,2.9,2.89,2.89c2.26-0.02,2.69-1.24,2.67-3.11
			C258.09,345.74,258.12,342.63,258.12,339.52z M258.23,192.18c-0.01,0-0.01,0-0.02,0c0-3.36,0-6.71,0-10.07
			c0-1.96-1.14-2.51-2.9-2.53c-1.81-0.02-2.83,0.6-2.82,2.56c0.03,6.59,0.04,13.18,0.02,19.76c-0.01,1.85,0.74,2.71,2.66,2.72
			c1.96,0.01,3.09-0.61,3.06-2.74C258.21,198.65,258.23,195.41,258.23,192.18z M258.15,302.82c0.01,0,0.01,0,0.02,0
			c0-2.85-0.05-5.71,0.02-8.56c0.05-2.08-0.57-3.27-2.94-3.25c-2.23,0.02-2.69,1.2-2.68,3.08c0.04,5.83,0.04,11.66,0,17.49
			c-0.01,1.9,0.5,3.05,2.7,3.08c2.4,0.03,2.94-1.24,2.9-3.29C258.1,308.53,258.15,305.67,258.15,302.82z M252.47,155.31
			c0,2.99,0.03,5.98-0.01,8.97c-0.03,1.94,0.61,3.05,2.78,3.04c2.01-0.01,3.01-0.79,3-2.86c-0.03-5.98-0.03-11.97,0-17.95
			c0.01-2.09-1.01-2.82-3.02-2.84c-2.19-0.02-2.81,1.09-2.78,3.03C252.5,149.57,252.47,152.44,252.47,155.31z M258.2,266.48
			c0-2.98,0.01-5.96,0-8.94c-0.01-2.06-1.36-2.35-3.03-2.35c-1.66,0-2.59,0.61-2.59,2.37c0.01,5.96,0.02,11.92,0,17.89
			c-0.01,1.93,0.98,2.61,2.8,2.6c1.81-0.02,2.83-0.72,2.82-2.62C258.19,272.44,258.2,269.46,258.2,266.48z M252.4,118.9
			c0.01,0,0.03,0,0.04,0c0,2.97,0.03,5.95-0.01,8.92c-0.02,2.02,0.87,2.91,2.92,2.89c2.06-0.02,2.9-0.97,2.89-2.96
			c-0.02-5.7-0.03-11.4,0-17.1c0.01-2.06-0.94-2.83-2.97-2.83c-2.08-0.01-2.93,0.88-2.89,2.9
			C252.43,113.45,252.4,116.18,252.4,118.9z"/>
		<path d="M466,159.76c0,3.86-0.05,7.71,0.01,11.57c0.07,4.2-1.65,6.2-5.72,6.75c-9.57,1.29-19.13,0.21-28.7,0.16
			c-17.18-0.1-34.36-0.19-51.53-0.94c-4.16-0.18-8.24-1.28-12.45,0.78c-2.42,1.18-5.13-1.43-5.8-4.89
			c-0.65-3.33-0.49-6.73-0.16-10.06c0.56-5.72,0.38-11.44,0.51-17.17c0.26-11.45,0.47-22.89,0.82-34.34
			c0.25-8.18,2.74-11.14,10.74-11.75c13.4-1.03,26.84-1.35,40.28-1.44c13.08-0.09,26.15-0.03,39.23,0.01
			c6.32,0.02,10.82,4.67,10.99,10.96c0.45,16.79,1,33.58,1.51,50.37C465.82,159.76,465.91,159.76,466,159.76z M431.72,167.33
			c6.97,0,13.95-0.08,20.92,0.04c2.72,0.05,3.78-0.93,3.74-3.69c-0.08-6.72-0.37-13.49,0.22-20.17c0.92-10.31-0.09-20.67,1.13-30.96
			c0.19-1.6,0.74-3.48-2.31-3.44c-26.52,0.37-53.02,0.1-79.52-1.26c-5.21-0.27-5.39-0.07-5.15,5.35
			c0.75,17.04,1.28,34.08,1.32,51.13c0.01,3.69,1.27,4.68,4.79,4.54C395.14,168.13,413.42,167.22,431.72,167.33z"/>
		<path d="M423.11,407.04c-12.22,0.38-24.41-0.44-36.61-0.89c-4.19-0.15-8.22-1.91-12.55-1.27c-1.29,0.19-2.39-0.79-2.58-2.23
			c-0.19-1.45,0.69-2.49,1.95-2.82c2.27-0.6,4.62-1.29,6.94-1.28c21.4,0.04,42.78-1.46,64.18-0.87c2.37,0.07,3.66-0.52,3.73-3.29
			c0.44-17.55,0.93-35.1,1.64-52.64c0.13-3.2-1.01-3.68-3.78-3.67c-13.33,0.08-26.68,0.37-40-0.15
			c-11.19-0.44-22.42,0.03-33.59-1.16c-4.53-0.48-4.81-0.08-4.75,4.66c0.22,17.44,0.5,34.88,0.71,52.32
			c0.07,5.52-1.44,7.91-4.7,7.82c-3.07-0.09-4.56-2.52-4.5-7.72c0.22-18.81,0.48-37.62,0.77-56.42c0.07-4.7,1.37-6.28,6.17-6.74
			c5.82-0.56,11.68-0.97,17.52-0.98c20.31-0.04,40.6-1.16,60.91-0.78c7.52,0.14,10.68,2.77,11.12,10.26
			c0.69,11.68,1.18,23.37,1.7,35.06c0.3,6.84,0.48,13.69,0.75,20.53c0.13,3.24-0.64,5.95-3.95,7.32c-0.23,0.09-0.54,0.2-0.62,0.39
			c-2.61,5.83-7.75,4.64-12.53,4.58C435.07,406.98,429.09,407.04,423.11,407.04z"/>
		<path d="M388.44,283.51c-15.46,0-30.91,0.07-46.37-0.03c-8.47-0.06-16.93-0.42-25.4-0.63c-2.33-0.06-4.54-0.6-4.29-3.43
			c0.23-2.66,2.38-2.49,4.56-2.43c3.47,0.1,6.95-0.44,10.43-0.44c38.52-0.08,77.03-0.12,115.55-0.13c2.77,0,6.57-0.62,6.41,3.62
			c-0.15,3.96-3.83,3.54-6.67,3.54c-18.07,0.02-36.15,0.01-54.22,0.01C388.44,283.56,388.44,283.54,388.44,283.51z"/>
		<path d="M384.7,307.5c-16.2,0.24-39.49-0.44-62.77-0.84c-1.97-0.03-3.95-0.41-5.91-0.74c-1.15-0.19-2.24-0.73-2.08-2.16
			c0.13-1.19,1.15-1.55,2.18-1.69c3.83-0.5,7.65-1.36,11.48-1.38c36.48-0.17,72.96-0.2,109.44-0.26c1.12,0,2.26-0.01,3.35,0.19
			c1.86,0.33,3.38,1.24,3.35,3.37c-0.03,2.08-1.45,3.1-3.37,3.35c-1.23,0.16-2.48,0.14-3.73,0.14
			C421.69,307.5,406.74,307.5,384.7,307.5z"/>
		<path d="M345.86,163c-7.7-0.92-15.44-0.46-23.15-0.67c-1.25-0.03-2.51-0.01-3.64-0.64c-1.26-0.7-2.22-1.68-2.21-3.21
			c0-1.54,0.98-2.49,2.27-3.16c1.26-0.65,2.64-0.67,4.01-0.7c7.34-0.16,14.7,0.24,22.02-0.63c1.34-0.16,2.76-0.09,4.09,0.17
			c2.43,0.46,4.19,1.79,4.08,4.52c-0.1,2.54-1.82,3.7-4.11,4.1C348.11,162.97,346.98,162.93,345.86,163z"/>
		<path d="M345.44,147.91c-7.32-0.61-14.66-0.38-21.99-0.44c-2.39-0.02-4.87-0.38-4.94-3.29c-0.07-3.07,2.46-3.74,4.98-3.76
			c8.83-0.07,17.66-0.09,26.49-0.09c2.43,0,4.69,0.65,4.79,3.53c0.1,2.83-2.12,3.74-4.49,4.01
			C348.69,148.05,347.06,147.91,345.44,147.91z"/>
		<path d="M337.68,133.78c-4.22,0-8.44,0.09-12.65-0.03c-2.32-0.07-4.77-0.64-4.63-3.63c0.13-2.71,2.41-3.15,4.64-3.22
			c7.31-0.24,14.62-0.46,21.92-0.66c1.24-0.03,2.49-0.02,3.71,0.17c2.18,0.34,4.3,1.04,4.24,3.78c-0.07,2.85-2.08,3.74-4.57,3.77
			c-4.22,0.05-8.44,0.01-12.65,0.01C337.68,133.91,337.68,133.84,337.68,133.78z"/>
		<path d="M336.89,118.22c-4.36-0.49-9.86,0.71-15.24-0.75c-1.53-0.42-3.61-0.53-3.36-2.69c0.24-2.06,2.22-2.57,4-2.6
			c9.29-0.14,18.58-0.2,27.87-0.28c0.5,0,1,0,1.49,0.04c2.02,0.2,3.83,0.89,3.73,3.26c-0.08,2.11-1.78,2.94-3.65,2.98
			C347.15,118.28,342.55,118.22,336.89,118.22z"/>
		<path d="M123.6,406.84c-20.69,0-41.38,0-62.07,0c-2.87,0-5.76,0.01-8.2-1.93c-0.37-0.29-0.89-0.46-1.37-0.53
			c-5.79-0.83-6.11-0.8-6.52-6.52c-0.83-11.69-0.63-23.42-0.26-35.12c0.16-5.1,2.5-6.7,7.41-6.98c48.31-2.78,96.66-1.27,144.99-1.42
			c1.37,0,2.76-0.02,4.1,0.19c3.02,0.48,5.06,2,5.19,5.35c0.48,12.07,1.09,24.13,1.43,36.2c0.21,7.57-2.49,9.92-9.95,10.2
			C173.44,407.23,148.52,406.7,123.6,406.84z M123.3,396.26c23.41,0.36,46.83-0.68,70.23,0.58c4.67,0.25,4.72,0.02,4.9-4.68
			c0.31-7.96,0.47-15.93,1.14-23.86c0.26-3.05-0.55-3.53-3.31-3.51c-23.55,0.16-47.09,0.32-70.64,0.19
			c-17.31-0.1-34.63,0.77-51.91-0.69c-5.34-0.45-10.67-0.82-16.03-0.8c-1.98,0-3.4,0.34-3.45,2.78c-0.18,9.46-0.43,18.92-0.67,28.38
			c-0.05,1.79,0.25,3.03,2.52,2.18c1.91-0.71,3.93-0.56,5.92-0.56C82.44,396.26,102.87,396.26,123.3,396.26z"/>
		<path d="M126.57,165.46c-19.69,0-39.39,0.02-59.08-0.03c-2.28-0.01-4.14,0.11-4.84,2.84c-0.36,1.4-1.55,2.3-3.17,1.98
			c-1.55-0.31-2.44-1.5-2.42-2.94c0.05-3.21-1-6.32-0.3-9.64c0.87-4.17-0.31-8.43-0.34-12.66c-0.07-9.72-0.02-19.45-0.11-29.17
			c-0.03-3.06,1.58-4.91,3.32-7.33c3.93-5.45,9.06-4.66,14.32-4.77c43.36-0.92,86.73-0.65,130.1-0.7c1.62,0,3.26-0.08,4.85,0.17
			c3.73,0.6,5.31,3.52,3.56,6.83c-0.94,1.79-1.02,3.53-0.95,5.41c0.46,12.19,0.81,24.39,1.41,36.58c0.19,3.91-2.68,6.7-3.08,10.45
			c-0.21,2.03-3.12,2.07-5.14,2.07c-12.71,0-25.39,0.99-38.11,0.81c-13.33-0.19-26.67-0.04-40.01-0.04
			C126.57,165.37,126.57,165.42,126.57,165.46z M205.11,123.63c0-1.74-0.01-3.49,0-5.23c0.05-6.2,0.05-6.21-6.01-6.21
			c-41.74-0.05-83.49,0.09-125.23-0.71c-1.99-0.04-4.03,0.17-5.97-0.18c-3.27-0.59-3.95,0.69-3.96,3.76
			c-0.05,12.21,0.62,24.43-0.61,36.61c-0.36,3.52,1.01,4.42,4.4,4.42c38.01-0.06,76.02-0.01,114.04,0.1
			c6.59,0.02,13.19,0.45,19.78,0.66c1.5,0.05,2.99,0.23,2.88-2.21C203.96,144.29,204.76,133.96,205.11,123.63z"/>
		<path d="M136.24,274.63c0-11.21,0.07-22.43-0.02-33.64c-0.06-7.59-0.52-15.18-0.48-22.77c0.02-3.51-1.29-4.44-4.64-4.39
			c-22.92,0.33-45.83,1.18-68.75,0.89c-1.49-0.02-3.02,0.05-4.47-0.22c-2.17-0.41-3.62-1.82-3.68-4.1
			c-0.07-2.22,1.11-3.89,3.29-4.43c1.54-0.39,3.2-0.44,4.81-0.43c20.8,0.22,41.59,0.47,62.39,0.71c5.04,0.06,10.05,1.63,15.13,0.08
			c1.37-0.42,2.29,0.75,2.81,1.96c0.95,2.19,1.46,4.47,1.45,6.89c-0.25,34.63-0.47,69.26-0.76,103.9c-0.02,2.55,0.11,6.21-3.17,6.24
			c-3.69,0.03-3.75-3.68-3.76-6.57c-0.04-14.7-0.02-29.41-0.02-44.11C136.32,274.63,136.28,274.63,136.24,274.63z"/>
		<path d="M49.65,313.12c0.98-26.89,0.35-53.79,0.78-80.68c0.06-4.09,0.7-8.17,1.22-12.24c0.17-1.33,0.69-2.89,2.43-2.83
			c1.73,0.06,2.11,1.65,2.29,2.98c0.41,2.95,0.86,5.93,0.89,8.9c0.31,30.76,0.55,61.52,0.79,92.28c0.05,6.79,0.03,6.95,6.73,6.44
			c21.75-1.66,43.54-1.33,65.32-1.35c1.48,0,3,0.11,4.43,0.46c2.03,0.51,3.17,2,3.17,4.1c0.01,2.1-1.15,3.59-3.12,4.17
			c-1.29,0.38-2.69,0.46-4.05,0.48c-17.69,0.3-35.36-0.33-53.04-0.83c-5.34-0.15-10.69-0.43-16.03-0.63
			c-2.01-0.08-3.69-0.04-5.54,1.28c-2.9,2.07-6.11-0.29-6.23-4.59C49.51,325.08,49.65,319.1,49.65,313.12z"/>
		<path d="M134.85,184.77c-20.68,0-41.36,0.02-62.04-0.03c-1.98,0-3.97-0.28-5.93-0.58c-1.65-0.26-3.38-0.86-3.48-2.81
			c-0.12-2.27,1.86-2.69,3.56-3.11c1.08-0.26,2.2-0.45,3.31-0.47c9.71-0.19,19.4-0.78,29.12-0.75c32.27,0.11,64.54,0.02,96.81,0.03
			c1.74,0,3.51,0,5.2,0.35c2.05,0.43,3.26,1.87,3.08,4.05c-0.17,2.04-1.54,3.07-3.47,3.29c-1.36,0.15-2.74,0.13-4.1,0.13
			c-20.68,0.01-41.36,0.01-62.05,0.01C134.85,184.85,134.85,184.81,134.85,184.77z"/>
		<path d="M137.99,192.63c19.3,0,38.6-0.02,57.9,0.02c2.5,0.01,6.07-0.69,6.15,3c0.09,3.95-3.59,3.38-6.23,3.38
			c-31,0.03-62.01,0.06-93.01-0.05c-8.94-0.03-17.88-0.52-26.82-0.8c-0.5-0.02-1.03,0.05-1.48-0.1c-1.55-0.51-4.03-0.05-4.07-2.38
			c-0.03-2.1,2.28-1.85,3.75-2.28c1.8-0.53,3.65-0.68,5.54-0.67c19.42,0.02,38.85,0.01,58.27,0.01
			C137.99,192.72,137.99,192.68,137.99,192.63z"/>
		<path d="M185.13,326.97c-8.33,0-16.66,0.01-24.98-0.01c-0.86,0-1.75-0.09-2.58-0.3c-1.62-0.41-3.27-1.04-3.13-3.09
			c0.13-1.96,1.72-2.73,3.41-2.83c12.17-0.7,24.34-1.15,36.53-0.71c2.17,0.08,3.94,1.19,3.95,3.64c0,2.4-1.7,3.63-3.86,3.77
			c-3.1,0.2-6.22,0.05-9.32,0.05C185.13,327.31,185.13,327.14,185.13,326.97z"/>
		<path d="M177.23,303.04c-5.51,0.47-12.18-0.73-18.9-0.77c-2.07-0.01-3.85-0.79-3.89-3.11c-0.04-2.37,1.85-3.08,3.85-3.19
			c10.44-0.57,20.88-1.09,31.33-0.76c2.63,0.08,5.23,0.75,5.1,4.11c-0.11,3.07-2.47,3.71-5.05,3.72
			C185.94,303.05,182.2,303.04,177.23,303.04z"/>
		<path d="M173.79,277.16c5.73,0,11.46-0.01,17.19,0c2.24,0,4.5,0.24,4.53,3.16c0.03,2.9-2.16,3.28-4.44,3.27
			c-11.46-0.05-22.93-0.1-34.39-0.16c-0.5,0-1-0.03-1.49-0.1c-2-0.32-3.8-1.1-3.59-3.46c0.19-2.16,1.96-2.64,3.87-2.63
			c6.11,0.01,12.21,0,18.32,0C173.79,277.21,173.79,277.18,173.79,277.16z"/>
		<g>
			<path d="M315.91,192.86c-0.01-0.01-0.02-0.01-0.04-0.02c0,0.01,0,0.02,0.01,0.03c0.01,0.01,0.02,0.01,0.03,0.02
				C315.91,192.88,315.91,192.87,315.91,192.86z"/>
			<path d="M451.43,199.78c0,0,1.04-9.06-1.87-12.05c-2.5-2.56-10.15-2.39-10.15-2.39l0.01,0.02c-1.06-0.05-2.13-0.04-3.2-0.03
				c-29.98,0.21-59.97,0.43-89.95,0.64c-8.58,0.06-17.16-0.08-25.73,0.68c-4.51,0.4-5.63,1.76-4.62,6.21
				c2.1,1.21,4.41,1.52,6.78,1.57c38.78,0.83,77.57,0.83,116.35,0.83c0.12,0,0.24-0.01,0.36-0.02l-0.01,0.02c0,0,2.8-0.04,3.32,0.54
				c0.52,0.58,0.25,3.89,0.25,3.89l0.02-0.01c-0.01,0.24-0.03,0.47-0.02,0.72c0.33,12.68-0.59,25.39,0.66,38.05
				c0.34,3.45-0.95,4.57-4.39,4.51c-9.83-0.17-19.67-0.08-29.5,0c-22.02,0.17-44.05,0.24-66.07,0.68c-7.2,0.14-14.4,0.6-21.61,0.74
				c-2.67,0.05-3.8-0.75-3.8-3.58c0.03-10.57-0.05-21.14-0.57-31.71c-0.27-5.47-0.23-10.92-1.82-16.22
				c-2.7-1.51-4.03-0.31-4.93,2.31c-1.59,4.6-0.97,9.37-1.34,14.07c-1.04,13.18-0.35,26.38-0.55,39.57
				c-0.01,0.73,0.19,1.49,0.44,2.18c1.15,3.16,4.25,4.38,6.84,2.23c2.2-1.84,4.48-1.9,6.97-1.72c12.41,0.88,24.83,1.37,37.28,1.34
				c26.4-0.05,52.79,0.02,79.19,0.06c1.48,0,3-0.25,4.41,0.43c4.7,2.28,6.26,1.4,6.52-3.84
				C451.54,232.94,451.49,216.36,451.43,199.78L451.43,199.78z"/>
		</g>
	</g>
</g>
</svg>
