<svg xmlns="http://www.w3.org/2000/svg" width="145" height="151.729" viewBox="0 0 145 151.729">
  <g id="cosmetics" transform="translate(-8.724)">
    <path id="Path_11" data-name="Path 11" d="M48.934,89.175H47.291V75.684a2.877,2.877,0,0,0-2.86-2.9h-.246v-27.6A2.9,2.9,0,0,0,42.6,42.6L20.474,31.393a2.829,2.829,0,0,0-2.782.127,2.9,2.9,0,0,0-1.357,2.463V72.789H16.09a2.877,2.877,0,0,0-2.86,2.9V89.175H11.584a2.877,2.877,0,0,0-2.86,2.9v76a2.877,2.877,0,0,0,2.86,2.9h37.35a2.877,2.877,0,0,0,2.86-2.9v-76A2.876,2.876,0,0,0,48.934,89.175ZM22.055,38.667l16.411,8.31V72.789H22.055Zm-3.1,39.912H41.572v10.6H18.95Zm27.124,86.593H14.444V94.965h31.63Z" transform="translate(0 -19.234)" fill="#5a5a5a"/>
    <path id="Path_12" data-name="Path 12" d="M221.846,304.276H128.961a2.86,2.86,0,1,0,0,5.719H217.3l-.654,1.359a21.812,21.812,0,0,1-19.549,12.288H128.961a2.86,2.86,0,1,0,0,5.719h68.132a27.56,27.56,0,0,0,24.7-15.527l2.627-5.459a2.86,2.86,0,0,0-2.577-4.1Z" transform="translate(-70.983 -186.542)" fill="#5a5a5a"/>
    <path id="Path_13" data-name="Path 13" d="M108.491,21.028a57.546,57.546,0,1,1,75.949,86.425,2.86,2.86,0,1,0,3.667,4.389,63.266,63.266,0,1,0-83.5-95.011,2.86,2.86,0,1,0,3.886,4.2Z" transform="translate(-57.116)" fill="#5a5a5a"/>
    <path id="Path_14" data-name="Path 14" d="M150.711,36.913a45.65,45.65,0,1,1-30.566,79.558,2.86,2.86,0,1,0-3.831,4.246,51.368,51.368,0,1,0-7-68.573,2.86,2.86,0,0,0,4.606,3.39A45.858,45.858,0,0,1,150.711,36.913Z" transform="translate(-60.251 -19.3)" fill="#5a5a5a"/>
    <path id="Path_15" data-name="Path 15" d="M215.257,105.475,163.07,157.662a2.86,2.86,0,0,0,4.045,4.044L219.3,109.519a2.86,2.86,0,1,0-4.044-4.044Z" transform="translate(-93.854 -63.997)" fill="#5a5a5a"/>
    <path id="Path_16" data-name="Path 16" d="M204.748,179.691a2.86,2.86,0,0,0,4.045,4.044l39.182-39.182a2.86,2.86,0,0,0-4.044-4.044Z" transform="translate(-119.524 -85.546)" fill="#5a5a5a"/>
  </g>
</svg>
