<?xml version="1.0" encoding="utf-8"?>
<!-- Generator: Adobe Illustrator 23.0.6, SVG Export Plug-In . SVG Version: 6.00 Build 0)  -->
<svg version="1.1" id="Livello_1" xmlns="http://www.w3.org/2000/svg" xmlns:xlink="http://www.w3.org/1999/xlink" x="0px" y="0px"
	 viewBox="0 0 512 512" style="enable-background:new 0 0 512 512;" xml:space="preserve">
<style type="text/css">
	.st0{fill:#006E93;}
	.st1{fill:#F8E75A;}
	.st2{fill:#DB5663;}
	.st3{fill:#FFFFFF;}
</style>
<g>
	<g>
		<path class="st0" d="M319.31,12.31c8.69,4.46,11.86,10.73,14.18,15.44c3.3,6.73,7.42,9.94,14.7,10.16
			c6.16,0.19,12.37,0.7,18.22,3.09c5.69,2.33,10.62,5.73,12.73,11.68c2.98,8.4,3.6,13.73-8.28,14.33c-1.05,0.05-2.11,0.01-3.16,0.01
			c-59.73,0-119.46,0-179.18,0c-1.58,0-3.16,0-5.05,0c0.61,2.63,2.44,4.1,3.99,5.76c0.76,0.81,2.09,1.54,1.15,2.95
			c-0.79,1.18-2.1,0.99-3.25,0.74c-0.75-0.16-1.52-0.5-2.12-0.97c-8.12-6.28-12.83-14.33-11.93-24.83
			c0.63-7.31,6.39-13.16,14.13-15.29c10.83-2.98,20.77,0.04,30.6,4.31c12.79,5.56,12.84,5.5,23.24-3.92
			c12.88-11.68,27.44-20.39,44.21-25.28C289.79,8.67,306.77,5.87,319.31,12.31z"/>
		<path class="st0" d="M159.67,457.34c18.73,0,37.45,0.01,56.18-0.02c1.52,0,3.18,0.45,4.41-1.05c1.82-2.23,4.1-2.97,6.6-1.29
			c2.64,1.78,2.57,4.57,1.73,7.14c-1.73,5.3-4.38,10.15-8.19,14.3c-11.02,12.01-25.11,14.01-40.27,12.17
			c-7.44-0.9-14.62-3.29-22.17-3.77c-13.22-0.84-25.16,3.51-36.96,8.61c-6.77,2.93-13.31,6.37-20.37,8.62
			c-15.96,5.1-30.37-1.85-36.36-17.59c-1.92-5.06-3.58-10.22-4.39-15.57c-1.5-9.9-6.83-17.12-14.79-22.86
			c-4.04-2.91-8.12-5.86-11.24-9.87c-5.27-6.79-5.09-13.64,0.69-19.96c9.24-10.11,21.37-14.59,34.32-17.36
			c3.72-0.8,7.55-1.09,11.33-1.63c4.04-0.57,6.8-2.37,7.48-6.82c0.38-2.48,0.77-6.04,4.28-5.51c3.32,0.51,2.33,3.96,2.31,6.32
			c-0.06,8.46-3.71,12.63-12.6,14.56c-1.37,0.3-3.06,0.05-3.18,2.16c-0.1,1.77,1.13,2.54,2.45,3.23c0.12,0.06,0.23,0.17,0.35,0.17
			c7.38,0.17,5.64,5.59,5.98,10.05c0.65,8.53,1.24,17.06,0.32,25.58c-0.4,3.72,1.07,6.49,4.15,7.63c3.74,1.38,7.57,2.81,11.76,2.79
			C122.22,457.29,140.95,457.34,159.67,457.34z"/>
		<rect x="96.34" y="76.67" class="st1" width="308.64" height="367.9"/>
		<path class="st2" d="M319.21,290.02c0.02-8.75,7.05-14.37,15.52-13.82c2.48,0.16,4.23,1.82,5.95,3.55
			c36.66,36.68,73.35,73.32,110.05,109.95c2.05,2.04,4.28,3.9,6.44,5.83c1.41,1.26,1.74,2.46,0.25,4
			c-4.58,4.73-9.12,9.5-13.59,14.34c-1.42,1.53-2.44,1.51-3.85,0c-2.62-2.79-5.39-5.43-8.09-8.14
			c-35.1-35.07-70.19-70.13-105.3-105.19c-1.21-1.2-2.49-2.36-3.87-3.35C320.12,295.33,318.86,292.92,319.21,290.02z"/>
		<path class="st0" d="M263.57,495.39c-9.4-0.03-18.25-7.87-19.32-17.12c-0.95-8.16,8-16.82,16.37-15.84
			c8.33,0.97,15.93,7.63,17.94,15.72C280.82,487.19,273.66,495.42,263.57,495.39z"/>
		<path class="st2" d="M344.94,266.02c0.75,0.69,1.65,1.44,2.47,2.27c17.67,17.93,35.33,35.87,52.98,53.81
			c16.08,16.35,32.29,32.57,48.15,49.13c5.37,5.61,10.81,11.16,16.18,16.78c0.73,0.77,2.25,1.49,1.04,2.88
			c-1.23,1.41-2.31,0.47-3.34-0.49c-2.6-2.42-5.32-4.71-7.83-7.22c-24.57-24.48-48.95-49.14-73.71-73.42
			c-11.1-10.88-22.16-21.81-33.31-32.65c-2.72-2.64-3.37-5.81-3.77-9.22C343.71,267.19,343.55,266.25,344.94,266.02z"/>
		<path class="st2" d="M311.75,300.92c4.06,0.19,6.44,1.34,8.63,3.56c18.64,18.84,37.64,37.33,56.03,56.4
			c11.53,11.95,23.39,23.56,34.94,35.48c0.73,0.75,26.43,23.03,24.06,25.64c-2.77,3.04-25.03-22.8-26.05-23.73
			c-2.81-2.58-5.7-5.08-8.42-7.74c-17.51-17.16-34.77-34.57-52.54-51.45c-10.13-9.62-19.85-19.65-29.94-29.3
			c-2.28-2.18-4.68-4.23-6.99-6.37c-0.58-0.53-1.14-1.2-0.72-2.07C311.21,300.4,312.12,300.84,311.75,300.92z"/>
		<path class="st2" d="M297.77,246.88c-0.35,3.5-4.49,7.88-7.89,8.48c-1.69,0.3-2.37-0.66-2.93-1.95c-0.83-1.92-1.72-3.81-2.53-5.74
			c-0.64-1.53-1.45-2.39-3.38-2.66c-3.27-0.46-4.66-4.26-2.97-7.02c0.91-1.5,2.3-2.11,3.63-1.13c4.28,3.17,9.4,4.48,14.12,6.66
			C297.48,244.29,297.9,245.3,297.77,246.88z"/>
		<path class="st3" d="M322.64,196.98h-126.8c-1.13,0-2.04-0.92-2.04-2.04v-55.96c0-1.13,0.92-2.04,2.04-2.04h126.8
			c1.13,0,2.04,0.92,2.04,2.04v55.96C324.68,196.06,323.77,196.98,322.64,196.98z"/>
		<polygon class="st3" points="289.08,262.05 305,297.52 311.75,300.92 319.16,276.72 339.62,272.66 343.74,260.62 305.48,243.22 		
			"/>
	</g>
	<g>
		<path d="M413.85,69.47c2.28,1.98,2.84,4.78,2.87,9.78c0.3,39.58,0.24,79.16,1.03,118.73c0.5,24.8-0.02,49.61,0.81,74.39
			c0.54,16.09,0.73,32.15,0.3,48.23c-0.05,1.91,1.21,2.83,2.29,3.93c14.49,14.8,29.01,29.57,43.5,44.37
			c4.71,4.81,9.38,9.64,14,14.53c4.39,4.65,4.4,8.46-0.03,13.13c-12,12.62-24.04,25.2-36.12,37.75c-5.26,5.46-9.3,5.53-14.94,0.32
			c-3.15-2.91-6.15-5.98-9.86-9.6c-0.38,5.4-0.68,9.81-1.01,14.22c-0.24,3.29-0.42,6.58-0.79,9.85c-0.54,4.78-3.78,7.93-8.54,8.38
			c-1.7,0.16-3.43,0.11-5.14,0.11c-98.7,0-197.39-0.02-296.09,0.07c-4.74,0-9.13-1.06-13.53-2.41c-3.77-1.16-5.7-3.92-5.3-7.8
			c1.03-10.15-0.26-20.27-0.18-30.4c0.02-2.46-0.59-4.08-3.27-4.46c-0.89-0.12-1.78-0.52-2.59-0.94c-1.55-0.81-3.05-1.81-3.04-3.8
			c0.01-1.99,1.43-3.52,3.05-3.72c6.71-0.84,5.91-5.64,5.86-10.23c-0.07-6.33-0.1-12.67,0.04-19c0.07-2.88-1.2-4.14-3.9-4.27
			c-2.37-0.11-4.75-0.1-7.12-0.28c-2.93-0.22-5.26-1.53-5.4-4.7c-0.15-3.29,2.01-5.11,5.09-5.52c2.47-0.33,5-0.33,7.5-0.26
			c2.63,0.07,3.85-0.87,3.83-3.66c-0.08-9.9-0.07-19.79,0.02-29.69c0.03-2.82-1.27-3.71-3.87-3.62c-2.24,0.08-4.49,0.05-6.72-0.16
			c-3.15-0.3-5.24-2-5.27-5.31c-0.04-3.27,2.24-4.59,5.11-4.99c2.48-0.34,4.98-0.51,7.48-0.66c2.26-0.13,3.25-1.21,3.28-3.51
			c0.11-7.91,0.28-15.82,0.54-23.73c0.08-2.5-0.83-3.4-3.38-3.66c-3.25-0.33-6.46-1.24-9.64-2.1c-1.75-0.47-3.04-1.74-3.12-3.68
			c-0.08-2.01,1.34-3.14,3.01-3.75c3.35-1.24,6.81-2.12,10.36-2.5c1.99-0.21,2.76-1.1,2.75-3.04c-0.03-9.76-0.04-19.53,0.01-29.29
			c0.01-2.2-0.95-3.08-3.09-3.09c-3.16-0.02-6.35,0.01-9.49-0.32c-4.25-0.43-6.64-2.84-6.48-6.07c0.16-3.17,2.82-5.42,6.96-5.67
			c2.89-0.17,5.8-0.2,8.71-0.16c2.24,0.03,3.41-0.7,3.4-3.18c-0.06-10.95-0.05-21.9,0.01-32.85c0.01-2.39-1.01-3.24-3.32-3.3
			c-2.89-0.07-5.8-0.28-8.66-0.72c-3.29-0.51-5.91-2.38-5.98-5.85c-0.06-3.33,2.64-4.96,5.59-5.83c2.96-0.87,6.04-0.48,9.06-0.53
			c2.32-0.03,3.32-0.88,3.31-3.28c-0.07-10.42-0.05-20.85-0.01-31.27c0.01-2.2-0.96-3.07-3.11-3.05c-3.3,0.03-6.6-0.08-9.89-0.13
			c-1.19-0.02-2.38,0.01-3.56-0.06c-4.53-0.27-7.26-2.39-7.35-5.66c-0.09-3.34,2.98-6.16,7.45-5.99c4.11,0.15,8.15-0.71,12.22-0.36
			c3.28,0.28,4.34-1.11,4.29-4.35c-0.15-11.08-0.06-22.17-0.06-33.25c0-12.05,2.61-14.7,14.55-14.71
			c77.19-0.04,154.38-0.07,231.57-0.1c16.36-0.01,32.72-0.02,49.08-0.05C384.68,66.71,408.86,65.14,413.85,69.47z M399.73,301.63
			c0.28-5.69,0.85-11.43,0.81-17.16c-0.22-31.66,0.18-63.32-0.53-94.98c-0.75-33.63-0.78-67.27-0.97-100.91
			c-0.02-3.6-1.04-4.8-4.72-4.73c-16.09,0.33-32.18,0.5-48.27,0.53c-61.75,0.12-123.5,0.18-185.25,0.25
			c-17.02,0.02-34.04,0.08-51.06-0.01c-3.01-0.02-4.26,0.85-4.2,4.04c0.16,8.57,0.16,17.15,0,25.73c-0.06,3.23,1.27,4.08,4.25,3.99
			c5.54-0.17,11.09-0.21,16.62-0.01c3.79,0.14,6.49,3.05,6.7,6.59c0.2,3.36-1.98,6.4-5.45,7.31c-1.51,0.39-3.13,0.56-4.69,0.52
			c-4.34-0.11-8.69-0.26-13.03-0.61c-3.19-0.26-4.48,0.78-4.41,4.17c0.18,9.1,0.18,18.21,0,27.31c-0.07,3.39,0.89,4.85,4.47,4.55
			c4.72-0.39,9.48-0.72,14.21-0.55c6.55,0.23,10.33,5.95,7.66,11.08c-1.71,3.28-4.86,3.9-8.08,3.99c-4.88,0.14-9.76,0.06-14.64,0
			c-2.15-0.03-3.57,0.49-3.56,3.04c0.04,10.56,0.04,21.11,0,31.67c-0.01,2.31,0.95,2.87,3.19,2.63c3.14-0.33,6.33-0.39,9.48-0.21
			c4.79,0.28,8.23,3.57,8.23,7.48c0,3.9-3.47,7.1-8.22,7.54c-3.04,0.28-6.06-0.15-9.07-0.51c-2.45-0.29-3.66,0.57-3.63,3.25
			c0.09,8.97,0.09,17.94,0,26.92c-0.03,2.63,1.11,3.5,3.59,3.38c3.16-0.15,6.33-0.3,9.48-0.1c5.03,0.32,8.25,3.39,8.11,7.4
			c-0.15,4.2-3.22,6.94-8.36,7.22c-3.03,0.16-6.07,0.15-9.1,0.02c-2.74-0.12-3.76,1-3.72,3.72c0.11,6.99,0.11,13.99,0,20.98
			c-0.05,2.79,1.12,3.79,3.79,3.64c2.5-0.14,5.01-0.09,7.52-0.11c2.37-0.01,4.75-0.09,7.12,0.02c4.08,0.19,7.05,2.94,7.16,6.47
			c0.12,3.72-2.35,6.78-6.55,7.06c-5.25,0.36-10.55,0.28-15.81,0.02c-2.54-0.13-3.25,0.62-3.23,3.01c0.08,9.37,0.11,18.74-0.01,28.1
			c-0.04,3.18,1.32,3.95,4.14,3.3c2.22-0.51,4.44-0.32,6.66,0.19c3.61,0.83,5.59,3.15,5.49,6.72c-0.1,3.46-2.38,5.57-5.72,6.12
			c-2.32,0.38-4.73,0.35-7.1,0.28c-2.58-0.08-3.5,1.04-3.47,3.55c0.08,7.65,0.09,15.31,0,22.96c-0.03,2.63,1.17,3.48,3.62,3.39
			c3.29-0.13,6.6-0.21,9.89-0.09c4.18,0.15,6.81,2.7,6.72,6.25c-0.08,3.4-2.62,5.81-6.6,5.96c-3.29,0.13-6.6,0.07-9.89-0.09
			c-2.72-0.13-3.81,0.93-3.75,3.68c0.12,5.28,0.03,10.55,0.03,15.83c0,6.45,0,6.46,6.48,6.46c93.55,0,187.1,0,280.65,0
			c0.92,0,1.85-0.06,2.77,0c2.56,0.18,3.46-1.02,3.51-3.52c0.16-7.91,0.39-15.82,0.82-23.71c0.19-3.44-0.84-5.96-3.36-8.35
			c-9.76-9.27-19.33-18.72-28.98-28.1c-18.63-18.12-37.25-36.25-55.9-54.35c-8.23-7.99-16.14-15.87-20.58-27.09
			c-6.92-17.53-15.33-34.46-22.88-51.75c-3.7-8.49,1-17.02,9.93-18.78c3.7-0.73,7.03,0.56,10.33,1.96
			c19.89,8.5,39.78,17.03,59.68,25.5c2.24,0.95,4.1,2.3,5.79,4.03c14.57,14.91,29.17,29.79,43.76,44.67
			C398.11,300.88,398.41,301.75,399.73,301.63z M319.94,289.27c0.11,2.6,0,4.77,1.85,6.59c17.98,17.62,35.98,35.24,53.85,52.97
			c21.06,20.9,42.04,41.88,62.94,62.93c2.55,2.57,4.2,2.8,6.63-0.01c3.19-3.68,6.58-7.23,10.21-10.48c2.91-2.61,2.52-4.26-0.13-6.87
			c-24.15-23.78-48.17-47.68-72.2-71.56c-14.31-14.22-28.6-28.47-42.89-42.71c-1.41-1.4-2.79-2.69-4.89-3.14
			C326.84,275.16,319.06,282.76,319.94,289.27z M337.55,270.48c0-1.96-0.21-3.67,0.05-5.3c0.33-2.09-0.46-3.2-2.29-3.97
			c-7.88-3.34-15.73-6.72-23.59-10.1c-1.54-0.66-2.72-0.6-3.5,1.2c-2.31,5.3-6.43,8.96-11.33,11.71c-2.87,1.61-2.96,3.36-1.66,6.1
			c3.11,6.53,6.11,13.13,8.82,19.84c1.4,3.45,3.4,4.84,7.14,4.63c1.96-0.11,2.59-0.1,1.99-2.26c-1.04-3.73-0.73-7.6-0.27-11.38
			c0.86-7.11,4.83-10.8,11.97-11.29C329.03,269.36,333.22,269.23,337.55,270.48z M344.87,267.46c-0.61,4.04,0.73,6.88,3.39,9.48
			c14.99,14.67,29.93,29.4,44.82,44.18c22.76,22.58,45.47,45.22,68.23,67.8c0.91,0.9,1.91,3.08,3.37,1.75
			c1.51-1.39-0.61-2.48-1.48-3.41c-4.06-4.33-8.18-8.6-12.34-12.84c-34-34.66-68.01-69.32-102.04-103.95
			C347.76,269.38,346.93,267.92,344.87,267.46z M432.65,420.47c0.37-0.36,0.74-0.71,1.1-1.07c-0.3-0.4-21.77-21.66-22.12-22.02
			c-30.72-30.99-61.45-61.96-92.15-92.96c-2.24-2.26-4.91-2.61-8.7-2.69C344.74,334.75,399.3,388.01,432.65,420.47z M281.08,238.04
			c2.13,4.94,3.75,8.82,5.45,12.66c1.95,4.39,3.64,4.74,7.3,1.7c1.71-1.42,2.54-3.27,3.11-5.33c0.38-1.37,0-2.29-1.31-2.85
			C291.19,242.34,286.75,240.45,281.08,238.04z"/>
		<path d="M264.25,141.52c-17.14-0.91-34.29-0.39-51.43-0.74c-3.95-0.08-7.9-0.4-11.83-0.79c-1.26-0.12-2.53-0.71-3.68-1.3
			c-1.2-0.62-2.17-1.64-1.88-3.17c0.27-1.45,1.38-2.21,2.72-2.58c0.75-0.21,1.56-0.27,2.34-0.29c40.22-1.13,80.44-0.79,120.67-0.78
			c5.75,0,8.62,0.4,9.88,6.31c1.78,8.28-0.2,44.92-0.01,54.41c0.12,5.84,0.75,10.09-6.82,10.1c-21.35,1.54-105.52-0.68-126.62-0.7
			c-10.43,0.22-7.11-8.08-8.45-19.91c0.16-10.95,0.11-21.9,0.23-32.85c0.02-2.09,0.31-4.21,0.73-6.26c0.36-1.78,1.42-3.2,3.47-3.24
			c2.22-0.04,3.32,1.45,3.8,3.37c0.38,1.53,0.67,3.11,0.71,4.68c0.32,13.45,0.64,26.89,0.81,40.34c0.07,5.51-0.08,5.51,5.49,5.52
			c14.12,0.01,28.24-0.36,42.34,0.1c23.74,0.77,47.47,0.34,71.2,0.71c2.03,0.03,3.49,0.2,3.56-2.65
			c0.39-15.02,1.01-30.03,1.45-45.05c0.15-5.2,0.03-5.22-5.27-5.22C299.87,141.51,282.06,141.52,264.25,141.52z"/>
	</g>
</g>
</svg>
