<?xml version="1.0" encoding="utf-8"?>
<!-- Generator: Adobe Illustrator 24.0.1, SVG Export Plug-In . SVG Version: 6.00 Build 0)  -->
<svg version="1.1" id="Livello_1" xmlns="http://www.w3.org/2000/svg" xmlns:xlink="http://www.w3.org/1999/xlink" x="0px" y="0px"
	 viewBox="0 0 512 512" style="enable-background:new 0 0 512 512;" xml:space="preserve">
<style type="text/css">
	.st0{fill:#006E93;}
	.st1{fill:#F8E75A;}
	.st2{fill:#FFFFFF;}
	.st3{fill:none;stroke:#000000;stroke-width:5.5641;stroke-linecap:round;stroke-linejoin:round;stroke-miterlimit:10;}
	.st4{fill:none;stroke:#000000;stroke-width:5.564;stroke-linecap:round;stroke-linejoin:round;stroke-miterlimit:10;}
	.st5{fill:#F9A850;}
	.st6{fill:#DB5663;}
	.st7{fill:none;stroke:#AF2B3E;stroke-width:5.564;stroke-linecap:round;stroke-linejoin:round;stroke-miterlimit:10;}
</style>
<g>
	<g>
		<path class="st0" d="M334.8,12.3c8.7,4.5,11.9,10.7,14.2,15.4c3.3,6.7,7.4,9.9,14.7,10.2c6.2,0.2,12.4,0.7,18.2,3.1
			c5.7,2.3,10.6,5.7,12.7,11.7c3,8.4,3.6,13.7-8.3,14.3c-1,0.1-2.1,0-3.2,0c-59.7,0-119.5,0-179.2,0h-3.3c-0.9,0-1.5,0.9-1.1,1.7
			c0.8,1.6,2.2,2.8,3.3,4c0.8,0.8,2.1,1.5,1.1,2.9c-0.8,1.2-2.1,1-3.3,0.7c-0.8-0.2-1.5-0.5-2.1-1c-8.1-6.3-12.8-14.3-11.9-24.8
			c0.6-7.3,6.4-13.2,14.1-15.3c10.8-3,20.8,0,30.6,4.3c12.8,5.6,12.8,5.5,23.2-3.9c12.9-11.7,27.4-20.4,44.2-25.3
			C305.3,8.7,322.3,5.9,334.8,12.3z"/>
		<path class="st0" d="M244.6,447.3c2.6,1.8,0.3,12.3-0.5,14.9c-1.7,5.3-4.4,10.1-8.2,14.3c-11,12-25.1,14-40.3,12.2
			c-7.4-0.9-14.6-3.3-22.2-3.8c-13.2-0.8-25.2,3.5-37,8.6c-6.8,2.9-13.3,6.4-20.4,8.6c-16,5.1-30.4-1.9-36.4-17.6
			c-1.9-5.1-3.6-10.2-4.4-15.6c-1.5-9.9-6.8-17.1-14.8-22.9c-4-2.9-13.2-9.1-10.1-25.5c3.1-16.4,25.2-24.4,37.1-24.6
			c11.9-0.3,24.3,4.4,28.1,3.8c4-0.6,4.9,4.5,5.6,0c0.4-2.5-3.1-3,0.4-2.5c3.3,0.5-11.9-8.4-11.9-6c-0.1,8.5,36.3,21.3,39.4,22.5
			C152.9,415.1,242.1,445.6,244.6,447.3z"/>
		<path class="st1" d="M107.8,66.7h316.7c2.4,0,4.4,1.9,4.4,4.4v379.2c0,2.4-1.9,4.4-4.4,4.4H107.8c-2.4,0-4.4-1.9-4.4-4.4V71
			C103.5,68.6,105.4,66.7,107.8,66.7z"/>
		<path class="st0" d="M279.1,495.4c-9.4,0-18.3-7.9-19.3-17.1c-1-8.2,8-16.8,16.4-15.8c8.3,1,15.9,7.6,17.9,15.7
			C296.3,487.2,289.2,495.4,279.1,495.4z"/>
		<path class="st2" d="M340.5,202.6H191.8c-2.3,0-4.1-1.8-4.1-4.1v-63.7c0-2.3,1.8-4.1,4.1-4.1h148.7c2.3,0,4.1,1.8,4.1,4.1v63.7
			C344.7,200.8,342.8,202.6,340.5,202.6z"/>
	</g>
	<line class="st3" x1="87.1" y1="124.7" x2="145.1" y2="124.7"/>
	<line class="st3" x1="87.6" y1="177.2" x2="145.6" y2="177.2"/>
	<line class="st3" x1="87.1" y1="224.7" x2="145.1" y2="224.7"/>
	<line class="st3" x1="87.6" y1="277.2" x2="145.6" y2="277.2"/>
	<line class="st3" x1="87.1" y1="313.7" x2="145.1" y2="313.7"/>
	<line class="st3" x1="87.6" y1="366.2" x2="145.6" y2="366.2"/>
	<line class="st4" x1="87.6" y1="407.2" x2="145.6" y2="407.2"/>
	<g>
		<path class="st5" d="M449.2,368.9c4.7,4.8,9.4,9.6,14,14.5c4.4,4.6,4.4,8.5,0,13.1c-12,12.6-24,25.2-36.1,37.8
			c-5.3,5.5-9.3,5.5-14.9,0.3c-3.1-2.9-6.1-6-9.9-9.6L381,404.3c-9.8-9.3-66.2-64.4-84.9-82.5c-8.2-8-16.1-15.9-20.6-27.1
			c-3.7-9.4-7.8-18.6-12-27.7c-3.7-8-7.4-16-10.9-24c-3.7-8.5,1-17,9.9-18.8c3.7-0.7,7,0.6,10.3,2c7,3,14.1,6,21.1,9
			c12.9,5.5,25.7,11,38.6,16.5c2.2,0.9,4.1,2.3,5.8,4C352.9,270.6,434.7,354.1,449.2,368.9z"/>
		<path class="st6" d="M283.1,255.7c9.6-9.6,10.5-20.5,10.5-20.5l0.1-0.1c-6.9-3-13.9-5.9-20.8-8.9c-3.3-1.4-6.6-2.7-10.3-2
			c-8.9,1.8-13.6,10.3-9.9,18.8c3.2,7.4,6.6,14.8,10,22.2C262.8,265.2,272.2,266.6,283.1,255.7z"/>
		<path class="st6" d="M463.2,383.4c-4.6-4.9-9.3-9.7-14-14.5c-14.5-14.8-96.2-98.3-110.8-113.2c-1.2-1.2-2.5-2.2-3.9-3.1
			c-0.1,0-0.2,0-0.3,0c-10,2-4,21-4,21s-16-8-26,3c-9.6,10.5-3,25-3,25c-17-5-21,2-21,2l0,0c4.4,6.8,10.1,12.5,16,18.2
			c18.6,18.1,75.1,73.2,84.9,82.5l21.2,20.7c3.7,3.6,6.7,6.7,9.9,9.6c5.6,5.2,9.7,5.1,14.9-0.3c1.7-1.8,3.4-3.5,5.1-5.3
			c10.4-10.8,20.7-21.6,31.1-32.5C467.6,391.9,467.5,388.1,463.2,383.4z"/>
		<line class="st7" x1="304.1" y1="303.7" x2="428.1" y2="427.7"/>
		<line class="st7" x1="333.1" y1="275.7" x2="456.1" y2="399.7"/>
	</g>
</g>
</svg>
