<?xml version="1.0" encoding="utf-8"?>
<!-- Generator: Adobe Illustrator 23.0.6, SVG Export Plug-In . SVG Version: 6.00 Build 0)  -->
<svg version="1.1" id="Livello_1" xmlns="http://www.w3.org/2000/svg" xmlns:xlink="http://www.w3.org/1999/xlink" x="0px" y="0px"
	 viewBox="0 0 512 512" style="enable-background:new 0 0 512 512;" xml:space="preserve">
<style type="text/css">
	.st0{fill:#FFFFFF;}
	.st1{fill:#F9C8C3;}
</style>
<g>
	<g>
		<rect x="60.4" y="55.78" class="st0" width="310.51" height="193.36"/>
		<path class="st1" d="M201.09,258.81c31.36-0.09,62.4,0.44,93.53-0.55c-1.36,2.4-3.6,2.96-5.57,3.88
			c-15.17,7.01-30.21,14.27-44.16,23.56c-2.63,1.75-5.54,3.45-6.62,6.56c-0.97,2.79-0.91,5.94,1.88,7.83
			c3.05,2.06,6.34,1.76,9.27-0.47c16.1-12.21,34.38-20.31,52.72-28.35c3.69-1.62,5.14-0.41,6.8,2.86c4.3,8.47,8.46,17.03,13.6,25.05
			c2.91,4.54,3.26,8.73,0.12,13.86c-8.75,14.28-16.14,29.31-17.85,46.29c-1.94,19.3,1.98,37.2,14.06,52.89
			c3.46,4.49,7.37,8.45,11.92,11.81c2.23,1.65,4.53,2.97,7.49,2.88c2.57-0.07,4.94-0.35,6.26-2.91c1.4-2.71,1.14-5.41-0.79-7.68
			c-1.85-2.18-3.92-4.21-6.11-6.05c-11.18-9.44-16.76-21.43-17.52-36.05c-1.03-19.73,4.48-37.61,14.94-53.98
			c4.69-7.34,3.97-13.97,0.08-20.96c-7.09-12.74-12.19-26.38-17.89-39.73c-6.78-15.85-13.82-31.63-18.34-48.37
			c-2.52-9.32-3.76-18.78-4.8-28.34c-0.63-5.79-0.02-11.36,0.95-16.99c2.62-15.22,18.29-22.39,31.61-14.37
			c1.73,1.04,2.53,1.84,3.41-1.02c0.84-2.72,3.44-2.1,4.74-0.22c4.98,7.22,10.08,14.44,12.16,23.17c0.9,3.76,3.37,6.62,5.2,9.82
			c9.71,16.92,16.51,35.16,24.13,53.02c5.98,14.02,11.69,28.17,17.58,42.23c0.6,1.44,1.5,2.8,2.46,4.03
			c2.02,2.59,4.77,4.1,7.97,2.91c2.95-1.09,3.34-3.95,3.41-6.86c0.21-8.98-4.14-16.67-7.01-24.73c-3.23-9.07-7.09-17.92-10.72-26.85
			c-1.69-4.16-1.76-8.36-0.83-12.7c0.33-1.53,0.3-3.15,0.3-4.73c0.02-21.22,0-42.44,0.04-63.66c0-1.2-0.73-2.95,0.74-3.5
			c1.39-0.51,2.21,1.1,2.93,2.08c12.75,17.22,22.86,36,31.59,55.45c11.94,26.61,18.86,54.82,24.24,83.37
			c2.31,12.27,3.66,24.81,2.71,37.32c-2.5,32.96-12.21,63.19-33.41,89.35c-12.44,15.34-26.89,28.03-44.15,37.38
			c-10.41,5.64-21.65,9.1-33.66,9.89c-24.29,1.59-47.16-3.71-68.54-14.81c-18.24-9.47-30.87-24.59-39.38-43.23
			c-9.23-20.21-12.04-41.55-11.09-63.51c0.2-4.71,0.55-9.53,1.8-14.04c2.43-8.78-1.37-16.04-4.71-23.48
			c-5.54-12.34-11.17-24.64-16.74-36.97C201.56,260.55,201.42,259.86,201.09,258.81z M313.95,205.12
			c9.18-1.56,18.55-6.8,28.39-10.71c1.11-0.44,1.09-1.38,0.51-2.52c-2.34-4.62-4.49-9.33-6.83-13.96
			c-2.85-5.66-6.03-11.17-8.62-16.95c-0.85-1.91-0.49-4.41-3.22-4.91c-2.1-0.38-4.08-1.46-6.32-1.09
			c-8.01,1.31-16.58,10.12-17.56,18.18c-1.03,8.51-0.1,16.84,2.47,24.99C304.08,202.36,308.03,205.14,313.95,205.12z"/>
		<path class="st1" d="M309.76,181.45c-0.38-4.2,0.53-8.94,4.08-12.77c2.52-2.72,5.31-3.85,9.14-1.71
			c5.56,3.11,8.34,8.15,10.78,13.56c0.72,1.61,0.03,2.78-1.6,3.39c-6.35,2.38-12.24,5.73-18.26,8.79c-2.32,1.17-2.98,0.91-3.46-1.83
			C309.93,188.01,309.85,185.19,309.76,181.45z"/>
	</g>
	<g>
		<path d="M46.48,153.73c0-25.54,0.13-51.08-0.06-76.62c-0.07-9.68,0.73-19.31,0.95-28.97c0.13-5.89,3.93-9.48,10-9.61
			c10.67-0.24,21.35-0.51,32.02-0.52c69.71-0.04,139.43,0.03,209.14-0.02c25.83-0.02,51.66-0.41,77.45,1.4
			c6.93,0.49,12.45,4.94,13.1,11.92c0.55,5.87,0.36,11.82,0.38,17.73c0.04,13.13,0.03,26.27-0.03,39.4
			c-0.01,2.84,0.51,5.28,2.45,7.57c18.69,22.09,32.66,46.98,45.2,73c15.97,33.12,24.61,68.24,29,104.22
			c5.95,48.8-6.67,93-38.76,130.98c-16.2,19.17-35.51,34.2-59.08,43.29c-23.87,9.2-48.14,7.72-72.39,1.83
			c-26.14-6.34-48.61-18.76-65.23-40.54c-14.31-18.75-21.89-40.13-24.86-63.32c-1.81-14.15-1.33-28.2,1.92-42.14
			c1.18-5.08,0.36-9.88-1.55-14.78c-5.93-15.21-12.96-29.92-19.53-44.84c-1.58-3.59-3.69-4.77-7.57-4.77
			c-38.83,0.05-77.65-0.09-116.48-0.17c-0.58,0-1.15,0-1.73,0c-13.27-0.04-16.34-3.06-16.33-16.29
			C44.49,212.89,44.66,183.31,46.48,153.73z M389.83,141.65c-0.14,1.78-0.26,2.6-0.26,3.43c0,24.97,0.02,49.95-0.01,74.92
			c0,2.95,0.54,5.7,1.68,8.41c5.64,13.44,11.22,26.91,15.76,40.78c1.31,4.01,2.36,8.06,1.12,12.3c-1.54,5.27-6.06,6.7-10.38,3.27
			c-2.58-2.04-4.05-4.86-5.25-7.82c-5.29-13.11-10.65-26.2-16.26-39.18c-9.38-21.71-17.36-44.07-30.61-63.93
			c-5.23-7.83-10.7-15.52-18.41-21.09c-11.41-8.23-26.07-3.5-30.52,9.81c-1.78,5.34-2.62,11-2.22,16.65
			c1.3,18.41,5.26,36.27,12.25,53.36c9.73,23.77,19.41,47.56,30.77,70.61c2.71,5.5,2.23,10.4-0.95,15.52
			c-10.5,16.92-16.49,34.98-15.61,55.33c0.64,14.74,6.26,26.39,17.16,35.88c1.96,1.7,3.99,3.36,5.71,5.29
			c2.41,2.7,3.28,5.97,1.22,9.16c-2.13,3.3-5.52,3.87-9.2,2.95c-2.3-0.57-4.23-1.83-6.03-3.3c-20.08-16.44-27.86-37.88-25.75-63.34
			c1.48-17.79,9.48-33.24,18.22-48.2c2.98-5.1,2.36-8.69-0.24-12.98c-4.57-7.53-8.73-15.29-12.63-23.18
			c-2.93-5.91-3.09-6.18-9.14-3.59c-17.26,7.39-34.26,15.33-49.51,26.5c-1.4,1.03-2.8,2.02-4.53,2.46
			c-2.91,0.74-5.58,0.29-7.46-2.08c-2.06-2.59-2.3-5.54-0.5-8.48c1.24-2.01,3.05-3.45,4.94-4.79c14.45-10.23,30.47-17.58,46.38-25.1
			c1.07-0.51,2.49-0.57,3.11-1.98c-0.46-0.11-0.74-0.23-1.02-0.23c-28.73,0.01-57.45,0.06-86.18,0.01
			c-3.48-0.01-3.43,1.23-2.23,3.87c6.39,14.05,12.66,28.17,19,42.24c1.99,4.42,3.05,8.83,2.16,13.83
			c-2.57,14.55-3.23,29.16-1.19,43.9c3.45,25,12.17,47.39,30.54,65.41c15.04,14.75,33.81,21.74,53.84,25.95
			c20.91,4.39,41.58,4.37,61.4-5.09c17.87-8.53,32.82-20.73,45.7-35.72c24.09-28.04,35.19-60.83,36.15-97.39
			c0.45-17.15-2.56-33.88-6.12-50.57c-8.28-38.77-22.22-75.23-43.72-108.66C397.73,151.75,394.23,146.91,389.83,141.65z
			 M369.96,179.29c0.85-16.12,0.58-32.12,0.83-48.11c0.36-22.92-0.17-45.86-0.32-68.79c-0.01-1.3-0.02-2.6-0.04-3.9
			c-0.02-1.97-0.91-2.75-2.98-2.69c-22.92,0.73-45.84,1.18-68.79,0.78c-19.03-0.34-38.08,0.37-57.12,0.32
			c-58.01-0.14-116.02,0.56-174.03-0.52c-7.24-0.13-7.2-0.02-7.09,7.41c0.54,34.62,1.09,69.25,1.58,103.87
			c0.32,22.5,0.64,45,0.76,67.5c0.02,3.94,1.22,5.27,5.23,5.22c15.43-0.21,30.87-0.43,46.3-0.5c56.14-0.25,112.28-0.1,168.42-0.11
			c1.59,0,3.18-0.06,4.76,0c3.1,0.12,4.19-0.8,2.94-4.1c-2.15-5.66-4.16-11.4-5.79-17.23c-4.74-16.86-8.41-33.87-6.07-51.6
			c4.73-35.86,39.3-41.91,59.21-27.99c5.35,3.74,9.61,8.7,13.85,13.63C358.69,160.75,363.87,170.26,369.96,179.29z"/>
		<path d="M299.17,181.93c-0.05-12.11,3.5-20.54,13.28-25.56c4.43-2.27,8.92-2.37,13.36-0.32c13.11,6.08,18.92,17.12,20.51,30.86
			c0.46,4-1.3,7.2-5.07,8.7c-8.3,3.3-16.36,7.29-25.05,9.55c-7.51,1.96-12.43-0.8-14.47-8.25
			C300.22,191.49,299.01,185.98,299.17,181.93z M318.94,166.36c-3.02,0.7-5.24,2.72-6.66,5.49c-3.12,6.12-2.59,12.58-1.25,19.02
			c0.45,2.16,2,1.61,3.38,0.92c3.61-1.8,7.18-3.68,10.82-5.41c9.4-4.45,9.79-6.25,2.95-14.51c-0.37-0.44-0.75-0.89-1.18-1.26
			C324.68,168.66,322.34,166.73,318.94,166.36z"/>
		<path d="M227.09,90.02c-30.45,0-60.89,0.07-91.34-0.04c-10.23-0.04-20.46-0.53-30.69-0.9c-1.56-0.06-3.16-0.4-4.66-0.87
			c-3.29-1.03-4.95-3.47-4.94-6.84c0.01-3.25,1.87-5.33,4.89-6.42c2.08-0.75,4.25-0.69,6.41-0.77c42.69-1.52,85.4-0.44,128.09-1.11
			c25.24-0.4,50.48-0.48,75.72-0.48c4.9,0,9.8,0.33,14.68,0.69c5.15,0.38,8.51,3.64,8.6,8.04c0.09,4.51-3.4,8.14-8.51,8.7
			c-1.71,0.19-3.46,0.13-5.19,0.13c-31.02,0.01-62.05,0-93.07,0C227.09,90.12,227.09,90.07,227.09,90.02z"/>
		<path d="M190.24,137.71c-21.21,0-42.41,0.07-63.62-0.04c-7.2-0.04-14.4-0.5-21.59-0.83c-5.72-0.26-9-2.84-8.84-6.83
			c0.15-3.84,3.33-6.07,8.82-6.45c20.74-1.45,41.52-0.77,62.28-0.89c31.16-0.18,62.32-0.07,93.48-0.07c2.3,0,4.6-0.07,6.86,0.65
			c3.46,1.1,5.4,3.46,5.41,6.98c0.01,3.54-2.02,5.88-5.39,7.04c-1.96,0.68-3.99,0.55-6,0.55c-23.8,0.01-47.61,0.01-71.41,0.01
			C190.24,137.79,190.24,137.75,190.24,137.71z"/>
		<path d="M162.93,183.24c12.83,0,25.66-0.02,38.48,0.01c7.41,0.02,11.2,2.73,11.23,7.91c0.03,5.14-3.92,8.07-11.13,8.07
			c-24.07-0.01-48.14,0.07-72.21-0.17c-8.19-0.08-16.38-0.94-24.56-1.55c-3.66-0.27-6.4-1.98-6.94-5.89
			c-0.45-3.26,2.18-6.32,6.41-6.77c7.15-0.76,14.34-1.31,21.52-1.44c12.39-0.23,24.79-0.06,37.19-0.06
			C162.93,183.31,162.93,183.28,162.93,183.24z"/>
	</g>
</g>
</svg>
