<?xml version="1.0" encoding="utf-8"?>
<!-- Generator: Adobe Illustrator 24.0.1, SVG Export Plug-In . SVG Version: 6.00 Build 0)  -->
<svg version="1.1" id="Livello_1" xmlns="http://www.w3.org/2000/svg" xmlns:xlink="http://www.w3.org/1999/xlink" x="0px" y="0px"
	 viewBox="0 0 512 512" style="enable-background:new 0 0 512 512;" xml:space="preserve">
<style type="text/css">
	.st0{fill:#FFCAB8;}
	.st1{fill:#FFFFFF;}
	.st2{fill:none;stroke:#006E93;stroke-width:8.8438;stroke-linecap:round;stroke-linejoin:round;stroke-miterlimit:10;}
	.st3{fill:#F8E75A;}
	.st4{fill:#FFCAB8;stroke:#C16A56;stroke-width:6.6328;stroke-linecap:round;stroke-linejoin:round;stroke-miterlimit:10;}
</style>
<g>
	<path class="st0" d="M213,313.9c0,0-101.7-165.8-11.1-225.5c90.9-59.9,170.2,4.4,212.3,88.4s78.8,211.2-28.7,267.5
		c-69.6,36.5-146.8,8.9-168-39.8C195.3,353.7,213,313.9,213,313.9z"/>
	<path class="st1" d="M363.6,252H60.2c-2.3,0-4.1-1.8-4.1-4.1V55c0-2.3,1.8-4.1,4.1-4.1h303.5c2.3,0,4.1,1.8,4.1,4.1v192.9
		C367.8,250.2,365.9,252,363.6,252z"/>
	<line class="st2" x1="88.1" y1="142.6" x2="315.8" y2="142.6"/>
	<line class="st2" x1="88.1" y1="180.2" x2="258.3" y2="180.2"/>
	<line class="st2" x1="88.1" y1="217.8" x2="196.4" y2="217.8"/>
	<path class="st3" d="M332.7,117.2H91.1c-2.3,0-4.1-1.8-4.1-4.1V83.7c0-2.3,1.8-4.1,4.1-4.1h241.6c2.3,0,4.1,1.8,4.1,4.1V113
		C336.8,115.3,335,117.2,332.7,117.2z"/>
	<path class="st4" d="M232.9,298.5c0,0,33.2-24.3,70.8-37.6"/>
	<path class="st4" d="M394.3,280.8c0,0-38.4-154.5-95.1-132.7c-57.5,22.1,22.1,165.8,22.1,165.8s-42,59.7,8.8,110.5"/>
	<path class="st4" d="M299.2,203.4c-8.8-17.7-6.6-35.4,6.6-39.8c16-5.3,26.5,11.1,31,24.3L299.2,203.4z"/>
</g>
</svg>
