<?xml version="1.0" encoding="utf-8"?>
<!-- Generator: Adobe Illustrator 24.0.0, SVG Export Plug-In . SVG Version: 6.00 Build 0)  -->
<svg version="1.1" id="Livello_1" xmlns="http://www.w3.org/2000/svg" xmlns:xlink="http://www.w3.org/1999/xlink" x="0px" y="0px"
	 viewBox="0 0 512 512" style="enable-background:new 0 0 512 512;" xml:space="preserve">
<style type="text/css">
	.st0{fill:#FFFFFF;}
</style>
<g id="Vu8KOL.tif_1_">
	<g>
		<path class="st0" d="M430.5,422.9c-23.2-0.1-46.6-0.1-69.8-0.2c-1.4,0-3,0-5,0c0-1.6,0-3,0-4.4c0-40,0.2-79.9-0.3-119.9
			c-0.1-7.8-1.5-15.9-4-23.3c-5.5-16.9-18.9-24.6-36.5-23.5c-18.7,1.2-32.5,15.7-36.3,30.6c-1.4,5.5-1.4,11.5-1.4,17.2
			c-0.2,39.7-0.1,79.2-0.1,118.9c0,1.4,0,2.7,0,4.2c-25.1,0-49.8,0-74.6,0c0-74.9,0-149.7,0-224.6c24.8,0,49.5,0,74.7,0
			c0,10.3,0,20.2,0,31.2c2-2.7,3.3-4.6,4.8-6.5c15.7-21,37.2-30.5,63.1-30.2c16,0.2,31.1,3.4,44.9,11.7
			c14.6,8.7,24.5,21.4,31.2,36.8c5.4,12.5,7.9,25.8,9,39.3c0.1,1.4,0.4,2.9,0.6,4.3C430.5,330.7,430.5,376.8,430.5,422.9z"/>
		<path class="st0" d="M127.9,89.1c3.3,0.7,6.7,1.2,9.9,2.1c17.9,5.2,28.6,20.6,27.7,39.6c-0.8,17.7-13.5,32-31.8,35.2
			c-13.8,2.4-27.1,1.1-38.3-8.1C83,147.7,79.2,134.2,82.7,119c3.6-15.8,14.4-24.7,29.7-28.5c2.7-0.6,5.3-1,8-1.4
			C122.9,89.1,125.4,89.1,127.9,89.1z"/>
		<path class="st0" d="M86.2,198c24.8,0,49.4,0,74.3,0c0,74.8,0,149.5,0,224.5c-24.6,0-49.3,0-74.3,0
			C86.2,347.7,86.2,272.9,86.2,198z"/>
	</g>
</g>
</svg>
