<?xml version="1.0" encoding="UTF-8" standalone="no"?>
<!-- Created with Inkscape (http://www.inkscape.org/) -->

<svg
   version="1.1"
   id="svg2"
   width="1365.3333"
   height="1365.3333"
   viewBox="0 0 1365.3333 1365.3333"
   sodipodi:docname="LogoMedusa.ai"
   xmlns:inkscape="http://www.inkscape.org/namespaces/inkscape"
   xmlns:sodipodi="http://sodipodi.sourceforge.net/DTD/sodipodi-0.dtd"
   xmlns="http://www.w3.org/2000/svg"
   xmlns:svg="http://www.w3.org/2000/svg">
  <defs
     id="defs6">
    <clipPath
       clipPathUnits="userSpaceOnUse"
       id="clipPath16">
      <path
         d="M 0,1024 H 1024 V 0 H 0 Z"
         id="path14" />
    </clipPath>
  </defs>
  <sodipodi:namedview
     id="namedview4"
     pagecolor="#ffffff"
     bordercolor="#ffffff"
     borderopacity="0.25"
     inkscape:showpageshadow="2"
     inkscape:pageopacity="0.0"
     inkscape:pagecheckerboard="0"
     inkscape:deskcolor="#d1d1d1" />
  <g
     id="g8"
     inkscape:groupmode="layer"
     inkscape:label="LogoMedusa"
     transform="matrix(1.3333333,0,0,-1.3333333,0,1365.3333)">
    <g
       id="g10">
      <g
         id="g12"
         clip-path="url(#clipPath16)">
        <g
           id="g18"
           transform="translate(482.4485,288.729)">
          <path
             d="m 0,0 c -0.379,-0.19 -0.771,-0.547 -0.966,-0.46 -19.745,8.787 -35.987,21.938 -48.675,39.465 -0.793,1.096 2.417,3.554 -2.011,3.829 -6.597,0.41 -9.614,5.449 -11.07,11.633 -1.122,4.764 -5.179,7.873 -7.561,11.651 -5.295,8.4 -12.372,16.748 -14.42,26.155 -2.828,12.987 -11.48,23.791 -11.233,37.985 0.33,19.038 1.551,37.374 11.093,54.458 5.376,9.625 5.775,21.219 12.977,30.52 13.341,17.23 27.451,33.708 42.756,49.155 4.139,4.178 6.724,9.458 10.57,13.62 11.285,12.21 22.167,25.142 35.11,35.37 13.864,10.955 22.614,27.116 37.014,36.485 14.658,9.537 25.873,22.738 40.106,32.627 11.826,8.215 21.657,19.338 32.258,29.294 14.992,14.079 31.171,27.164 44.435,42.734 12.378,14.529 25.396,28.639 34.972,45.877 7.526,13.547 16.579,25.964 17.491,41.847 0.532,9.28 0.147,18.569 -0.792,28.031 -3.088,31.125 -32.59,57.683 -57.641,70.181 -19.784,9.87 -39.59,20.743 -61.686,25.619 -26.722,5.897 -53.978,11.41 -80.975,8.821 -16.157,-1.55 -34.052,0.816 -49.097,-8.624 0.143,-2.562 2.039,-3.085 3.568,-3.549 16.811,-5.115 20.307,-20.801 22.863,-34.128 2.115,-11.024 -0.598,-24.363 -7.727,-34.349 -10.855,-15.204 -24.058,-28.517 -40.567,-37.66 -25.523,-14.134 -52.765,-15.928 -81.196,-11.201 -9.349,1.554 -18.156,5.451 -27.714,5.643 -6.961,0.14 -9.886,6.28 -14.642,9.746 -7.786,5.675 -12.236,12.753 -15.203,22.208 -1.992,6.35 1.149,10.563 1.464,15.736 1.026,16.827 9.556,31.065 19.796,43.251 7.579,9.019 18.915,15.029 29.802,20.375 13.772,6.763 28.515,11.594 41.297,20.303 5.562,3.79 11.617,0.159 17.828,2.965 13.685,6.182 29.295,6.062 43.804,9.345 19.841,4.488 39.907,3.775 59.64,4.966 29.433,1.778 58.974,-3.451 87.506,-11.812 15.396,-4.511 29.862,-11.597 44.613,-17.95 20.963,-9.029 39.478,-21.941 58.413,-33.935 7.543,-4.778 17.348,-10.541 21.183,-18.939 2.918,-6.39 7.232,-11.287 11.726,-14.679 7.198,-5.433 11.213,-12.975 14.806,-19.935 11.401,-22.082 14.493,-45.582 6.469,-69.901 -4.944,-14.983 -14.868,-26.165 -25.164,-37.676 -24.626,-27.531 -53.704,-49.68 -82.294,-72.615 -11.965,-9.598 -20.903,-22.892 -32.31,-33.303 -15.62,-14.255 -32.49,-27.122 -48.44,-41.027 C 63.263,311.664 45.258,294.369 28.818,275.166 18.143,262.696 8.766,249.159 -2.562,237.18 c -6.422,-6.791 -10.51,-16.181 -14.478,-24.412 -9.139,-18.954 -17.078,-38.727 -21.415,-59.687 -4.309,-20.826 -6.899,-41.792 -2.737,-62.689 1.996,-10.017 6.165,-20.486 8.02,-29.927 3.285,-16.728 15.256,-27.123 21.941,-40.956 C -8.161,13.156 -1.426,7.987 0,0"
             style="fill:#ffffff;fill-opacity:1;fill-rule:nonzero;stroke:none"
             id="path20" />
        </g>
        <g
           id="g22"
           transform="translate(391.5236,307.3706)">
          <path
             d="m 0,0 c -10.899,-1.544 -18.943,3.636 -26.975,7.389 -20.138,9.41 -39.404,20.695 -59.015,31.237 -14.459,7.773 -27.086,18.843 -37.384,30.673 -10.148,11.658 -16.524,27.522 -19.85,43.41 -3.194,15.252 -3.632,30.503 3.025,45.404 1.351,3.024 -0.838,7.545 -1.084,11.395 -0.586,9.21 0.842,18.119 4.422,26.66 0.651,1.555 1.706,3.247 1.562,4.781 -1.519,16.159 6.598,30.557 9.769,45.674 3.239,15.444 8.697,31.224 13.734,46.678 6.463,19.829 12.099,39.83 10.184,61.409 -1.413,15.912 -2.238,32.205 -7.895,46.81 -7.072,18.258 -18.123,34.949 -39.17,40.205 -5.655,1.412 -11.764,1.149 -17.686,2.288 -4.655,0.895 -10.212,-2.443 -11.913,5.33 -0.44,2.006 -3.28,1.69 -3.979,-0.122 -2.481,-6.429 -9.502,-5.767 -13.317,-6.116 -24.469,-2.24 -43.038,-15.202 -60.854,-30.372 -10.103,-8.603 -21.203,-16.206 -29.283,-26.849 -9.48,-12.486 -17.991,-25.469 -22.39,-41.062 -2.706,-9.591 -6.635,-19.075 -10.35,-28.278 -4.31,-10.677 -6.447,-20.873 -5.862,-32.035 0.293,-5.574 0.442,-11.242 -2.726,-16.123 -3.66,-5.638 2.704,-8.573 2.836,-15.599 6.723,15.459 16.553,24.658 30.125,29.811 4.157,1.578 7.756,3.828 11.962,-0.723 3.825,-4.139 9.84,-0.763 14.849,-2.701 5.622,-2.174 10.454,-3.724 9.515,-11.1 -0.212,-1.668 0.152,-3.185 1.626,-4.602 10.315,-9.916 14.653,-32.005 8.489,-44.667 -1.623,-3.335 -1.845,-6.488 -1.989,-9.961 -0.903,-21.749 -13.941,-37.202 -30.523,-47.446 -25.193,-15.564 -55.986,-5.724 -70.229,21.401 -7.513,14.309 -12.503,28.666 -11.224,44.897 0.37,4.7 -3.19,10.377 3.348,13.609 0.357,0.176 0.604,1.617 0.337,1.869 -11.72,11.06 -1.203,22.866 -1.167,34.291 0.053,17.075 6.124,33.111 10.718,49.051 3.009,10.439 9.825,20.932 14.026,30.991 5.215,12.486 16.793,20.462 20.066,31.526 4.145,14.006 16.36,18.408 23.174,28.512 11.164,16.554 28.487,26.748 43.175,39.601 7.575,6.629 18.93,6.473 28.149,10.355 23.565,9.921 48.469,12.127 72.308,5.97 26.084,-6.737 51.52,-16.825 64.842,-44.785 3.019,-6.336 8.585,-12.606 12.101,-19.488 1.752,-3.428 3.102,-22.691 4.69,-26.136 3.366,-7.307 1.031,-15.161 3.229,-21.885 3.416,-10.448 2.514,-19.682 -2.293,-28.869 -2.538,-4.85 2.914,-7.761 1.46,-13.274 -3.716,-14.09 -11.355,-26.566 -14.8,-40.637 -5.224,-21.333 -15.488,-40.834 -22.707,-61.344 -10.897,-30.956 -17.607,-62.643 -10.312,-96.605 4.956,-23.075 16.756,-40.241 31.316,-57.342 8.919,-10.476 19.325,-19.23 28.818,-28.973 5.268,-5.406 13.469,-7.827 19.961,-12.174 C -20.607,14.89 -10.371,7.344 0,0"
             style="fill:#ffffff;fill-opacity:1;fill-rule:nonzero;stroke:none"
             id="path24" />
        </g>
        <g
           id="g26"
           transform="translate(564.1403,278.3126)">
          <path
             d="m 0,0 c -11.662,31.874 -17.871,62.184 -6.651,95.965 7.925,23.862 22.881,41.606 38.298,58.887 11.624,13.029 29.791,17.931 48.095,19.294 23.082,1.719 45.889,-0.979 68.838,-2.053 25.157,-1.178 49.31,-6.969 73.747,-11.834 5.68,-1.131 11.755,-0.155 17.509,-1.053 22.561,-3.519 45.483,-3.537 67.8,-1.265 29.439,2.996 57.663,12.319 77.051,37.137 7.386,9.453 15.155,19.651 13.838,33.17 -0.067,0.689 -0.351,1.742 -0.02,2.028 10.077,8.707 -3.141,22.855 7.402,31.896 1.553,1.332 -0.83,7.073 -1.114,10.795 -0.79,10.386 1.379,20.646 0.268,31.194 -3.443,32.696 -11.065,63.572 -29.104,91.839 -9.053,14.185 -17.331,28.23 -32.267,36.873 -0.81,0.469 -1.84,0.558 -2.752,0.819 -1.75,-3.461 -0.372,-6.38 1.306,-8.974 9.621,-14.869 7.664,-31.824 5.4,-47.342 -2.362,-16.194 -13.857,-27.87 -30.574,-32.616 -16.269,-4.618 -30.569,-2.508 -41.673,11.723 -5.186,6.647 -12.624,12.054 -10.405,22.13 -9.189,2.194 -9.722,11.44 -11.131,17.462 -3.449,14.739 -7.349,30.202 1.961,44.845 3.614,5.685 6.579,11.806 10.042,17.589 7.361,12.295 18.574,18.444 30.758,20.702 12.028,2.229 24.888,2.93 37.034,-4.679 6.642,-4.161 15.051,-6.301 22.401,-10.008 8.316,-4.195 14.54,-10.149 17.229,-19.348 0.359,-1.229 0.712,-2.986 1.608,-3.451 11.832,-6.131 18.248,-17.653 23.863,-30.992 4.939,-11.732 9.383,-23.609 13.813,-35.508 14.076,-37.81 21.641,-76.677 18.524,-117.227 -0.053,-0.691 0.142,-1.722 -0.234,-2.022 -12.942,-10.346 -4.07,-25.391 -8.114,-37.608 -7.115,-21.495 -14.358,-43.258 -30.523,-59.746 -8.095,-8.258 -15.826,-19.958 -27.433,-21.279 -8.146,-0.927 -9.124,-7.961 -15.474,-9.87 -7.03,-2.112 -14.214,-2.186 -21.033,-4.256 -4.2,-1.276 -7.799,-1.669 -11.901,0.38 -8.003,3.997 -15.915,-1.121 -23.712,-1.801 -8.57,-0.748 -16.51,1.481 -24.558,1.999 -24.637,1.586 -49.294,4.679 -73.597,9.097 -19.743,3.589 -39.391,7.904 -59.374,9.397 -20.23,1.512 -39.558,-0.981 -57.995,-12.008 C 61.193,120.739 46.303,110.957 35.183,95.759 33.137,92.962 29.591,89.327 24.705,90.317 23.128,90.637 21.251,90.015 21.817,88.706 26.201,78.569 16.706,73.091 14.272,65.292 11.549,56.568 11.645,46.824 4.976,39.479 4.158,38.579 3.939,36.934 3.842,35.604 3.008,24.183 4.871,12.543 0,0"
             style="fill:#ffffff;fill-opacity:1;fill-rule:nonzero;stroke:none"
             id="path28" />
        </g>
        <g
           id="g30"
           transform="translate(566.8616,66.0419)">
          <path
             d="m 0,0 c 2.05,-5.848 -0.978,-15.28 7.704,-12.332 6.643,2.256 13.467,2.153 20.148,4.401 28.401,9.556 56.671,19.054 84.234,31.101 18.271,7.985 35.596,17.404 53.168,26.585 19.923,10.409 39.214,22.313 56.136,36.586 23.706,19.996 48.003,39.702 68.238,63.614 9.47,11.189 17.126,23.843 26.617,34.826 10.332,11.954 15.706,26.684 25.053,39.035 0.99,1.307 3.166,5.358 -1.797,6.35 -26.764,5.349 -53.838,6.408 -80.942,4.8 -18.555,-1.101 -36.911,-4.4 -55.136,-8.298 -4.62,-0.988 -5.172,-3.25 -5.287,-7.134 -0.657,-22.316 -6.285,-44.109 -7.816,-66.197 -1.024,-14.773 -6.26,-28.251 -8.119,-42.634 -1.26,-9.75 -4.507,-19.284 -4.704,-29.3 -0.074,-3.782 -1.282,-7.368 -5.728,-7.045 -3.325,0.242 -7.346,-2.212 -10.043,2.101 -19.262,30.807 -35.139,63.483 -52.255,95.467 -2.525,4.717 -3.603,5.29 -8.144,2.677 C 87.986,166.929 77.419,155.939 68.06,144.369 52.466,125.093 37.305,104.992 27.781,81.987 24.208,73.358 14.615,66.721 17.242,55.493 17.553,54.161 16.198,52.287 15.315,50.849 5.503,34.873 5.547,16.17 0,0 m -23.828,-20.998 c 4.223,20.502 4.489,41.984 14.31,61.654 7.472,14.963 11.52,31.461 18.485,46.812 8.26,18.206 18.646,34.985 29.131,51.898 8.15,13.147 20.663,22.578 28.007,36.114 1.511,2.785 2.158,6.198 5.894,1.909 1.144,-1.313 2.611,-0.446 2.976,1.16 4.403,19.378 22.593,24.718 35.863,34.854 5.806,4.435 12.03,8.395 17.6,13.207 3.572,3.087 7.144,6.426 12.049,2.41 1.403,-1.149 2.9,-1.133 3.028,0.409 1.205,14.435 14.8,13.66 23.074,16.734 34.209,12.705 69.567,20.012 106.578,17.581 22.285,-1.464 44.988,1.779 66.765,-4.902 8.851,-2.715 18.122,-2.762 26.759,-5.839 5.397,-1.922 8.721,-5.758 7.016,-11.826 -3.337,-11.878 -8.245,-22.849 -15.359,-33.254 -9.54,-13.952 -17.741,-28.764 -28.625,-41.888 C 316.521,150.118 303.987,133.806 289.242,119.058 273.838,103.652 257.149,90.057 240.513,76.21 233.439,70.322 226.177,66.224 217.59,62.613 211.096,59.881 206.599,52.368 197.395,52.672 194.627,52.764 197.289,45.668 192.264,43.216 178.725,36.608 165.552,29.168 152.362,21.909 131.339,10.339 108.884,2.199 86.759,-6.259 71.552,-12.073 56.007,-17.969 39.327,-20.946 23.05,-23.852 6.796,-27.916 -9.642,-30.677 c -9.168,-1.54 -14.325,1.814 -14.186,9.679"
             style="fill:#ffffff;fill-opacity:1;fill-rule:nonzero;stroke:none"
             id="path32" />
        </g>
        <g
           id="g34"
           transform="translate(406.9508,63.6763)">
          <path
             d="m 0,0 c -12.226,52.492 -33.684,99.14 -69.356,139.101 -8.415,-13.594 -7.052,-28.131 -11.566,-41.428 -3.789,-11.161 -5.349,-23.441 -11.292,-34.001 -5.284,-9.39 -8.1,-9.276 -14.743,-0.603 -1.398,1.826 -1.946,4.32 -2.821,6.531 -7.672,19.385 -11.454,39.84 -16.937,59.818 -4.825,17.581 -6.114,35.559 -10.727,52.915 -0.864,3.251 2.537,5.312 -0.475,9.682 -4.098,5.943 -9.338,7.463 -14.545,9.493 -23.263,9.069 -46.531,18.836 -72.41,15.336 -6.219,-0.841 -7.254,6.048 -11.818,6.804 -5.807,0.963 -4.014,-9.661 -11.369,-7.774 -9.096,2.334 -17.085,-2.587 -25.369,-5.172 -12.214,-3.812 -14.575,-9.187 -6.53,-19.256 18.903,-23.658 36.703,-48.035 59.74,-68.517 12.252,-10.893 23.576,-23.551 35.754,-35.003 6.641,-6.246 13.225,-12.707 19.658,-19.067 10.678,-10.557 25.825,-15.852 38.152,-25.013 18.963,-14.093 42.287,-18.673 63.619,-27.616 4.401,-1.845 9.136,-2.252 13.637,-4.442 C -34.385,4.483 -18.615,-0.664 0,0 m -243.953,245.167 c 25.466,3.035 49.839,-4.047 74.483,-7.892 6.479,-1.011 12.766,-4.526 18.633,-7.804 4.575,-2.555 9.047,-4.253 14.196,-5.483 12.658,-3.026 21.978,-12.638 33.143,-18.699 15.303,-8.309 28.131,-20.016 39.65,-32.458 12.919,-13.953 25.061,-28.81 36.178,-44.523 7.118,-10.062 13.008,-20.947 20.707,-30.686 C -2.116,91.49 0.45,83.274 3.69,76.061 13.508,54.204 20.977,31.295 23.672,7.215 c 0.879,-7.854 4.162,-15.157 4.308,-23.212 0.189,-10.414 -3.844,-13.509 -13.777,-10.699 -18.35,5.189 -37.652,5.757 -55.952,11.594 -12,3.827 -24.104,7.171 -35.282,13.153 -2.405,1.287 -4.852,3.006 -7.438,3.356 -13.106,1.776 -23.918,8.009 -33.674,16.518 -0.776,0.677 -1.833,2.079 -2.303,1.905 -11.346,-4.204 -17.611,6.337 -26.01,9.825 -8.668,3.599 -16.877,9.736 -24.698,15.458 -14.017,10.256 -28.826,19.492 -41.687,31.332 -7.349,6.766 -14.511,13.667 -21.534,20.775 -7.988,8.085 -16.107,16.07 -24.149,24.117 -10.241,10.247 -20.043,20.765 -28.969,32.066 -14.115,17.869 -26.46,36.959 -36.84,57.286 -0.769,1.506 -1.944,3.004 -3.308,3.967 -6.788,4.792 -3.366,8.655 1.752,10.379 8.657,2.914 16.957,6.67 25.861,9.22 18.51,5.299 37.105,8.918 56.075,10.912"
             style="fill:#ffffff;fill-opacity:1;fill-rule:nonzero;stroke:none"
             id="path36" />
        </g>
      </g>
    </g>
  </g>
</svg>
