<svg xmlns="http://www.w3.org/2000/svg" width="146" height="141.734" viewBox="0 0 146 141.734"><defs><style>.a{fill:#fff;}</style></defs><g transform="translate(0)"><path class="a" d="M185.823,85.5c-6.753-13.025-23.7-32.079-60.963-32.2-37.265-.06-82.429,23.034-80.982,63.555.121,3.316,1.809,5,3.075,4.281.663-.422-2.774-1.749-.724-7.959,21.587-65,154.487-65.847,131.272,15.437-5.548,19.3-34.672,33.1-38.953,34.974-4.221,1.869-3.859,4.583-3.558,6.211.241,1.387,1.688,9.165,1.93,10.733.181,1.507-1.146.9-1.93.362s-8.14-6.693-10.613-9.226c-2.05-2.111-3.98-1.507-13.628,1.146s-34.431,2.894-43.416-7.3-5-23.034-3.98-25.145c.362-.663,1.206-2.533,0-3.075-1.628-.724-5.728,3.316-6.512,9.407s.422,19.055,13.507,28.461c19.3,13.809,49.506,3.859,49.506,3.859,19.6,17.065,35.758,16.16,37.989,15.919s4.522-1.085,4.221-2.533c-.241-1.447-2.412-1.99-4.522-1.869a17.287,17.287,0,0,1-12.18-5.668c-3.98-4.643-3.316-13.386-3.316-13.386,11.4-4.884,33.1-22.13,40.642-36.541C190.345,120.534,192.576,98.524,185.823,85.5Z" transform="translate(-43.844 -53.3)"/><g transform="translate(25.536 29.596)"><path class="a" d="M117.123,119.579c-5.125-3.859-10.913-4.884-17.605-3.2a20.618,20.618,0,0,0-12.48,8.8l-.121.241c-1.025,1.447-.784,2.351-.422,2.894a1.807,1.807,0,0,0,1.447.6,2.193,2.193,0,0,0,1.447-.6h0c-.362,1.447,1.206,4.7,2.894,6.813,3.376,4.341,7.717,9.526,9.1,9.526h.06a2.68,2.68,0,0,0,1.447-.784.919.919,0,0,1,.6-.362,19.479,19.479,0,0,0,13.686-6.813,13.512,13.512,0,0,0,3.437-10.189A10.027,10.027,0,0,0,117.123,119.579ZM90.112,127.3a15.936,15.936,0,0,1,13.686-6.753c8.38.482,10.852,3.617,11.576,5.426.9,2.291-.241,7.657-5.487,9.827a38.094,38.094,0,0,1-8.32,2.593c-1.025-1.085-6.753-7.355-7.6-8.26-.181-.181-.362-.422-.543-.6-.844-.965-1.869-2.17-2.894-2.17a1.761,1.761,0,0,0-.543.121h0C90.052,127.477,90.112,127.356,90.112,127.3Z" transform="translate(-86.184 -107.626)"/><path class="a" d="M145.775,102.39a1.67,1.67,0,0,0-1.387.362c-1.206,1.387,1.266,4.1,2.713,5.728.181.181.3.362.422.482.844,1.025,3.617,7.235,4.341,9.466a3.336,3.336,0,0,0,2.231,2.17,4.653,4.653,0,0,0,.9.121,1.978,1.978,0,0,0,1.266-.362c1.025-.844,1.628-2.532-1.568-8.561C150.478,103.536,146.8,102.511,145.775,102.39Z" transform="translate(-109.168 -102.375)"/><path class="a" d="M126.863,184.231a3.348,3.348,0,0,0-.844,2.653c0,2.412,1.869,4.462,3.376,6.15,1.206,1.266.482,2.593-.965,4.22-1.025,1.146-8.8,3.135-14.289-.9-5.306-3.919-5-7.416-2.713-11.817,2.231-4.341,7.958-7.054,8.923-7.054h0c1.748.06,2.472-.6,2.773-1.146a1.027,1.027,0,0,0,0-.844,1.855,1.855,0,0,0-1.387-.844c-3.919-.482-6.632,1.085-11.576,5.064A13.887,13.887,0,0,0,105.4,190.38a11.311,11.311,0,0,0,4.4,9.1,21.327,21.327,0,0,0,13.143,4.462,19.016,19.016,0,0,0,5.909-.9A9.478,9.478,0,0,0,134.4,198.4c3.859,2.773,6.451,3.015,7.9,2.713a2.964,2.964,0,0,0,2.05-1.146,3.129,3.129,0,0,0,.121-2.592,3.523,3.523,0,0,0-2.532-2.05c-2.593-.663-8.441-5.909-9.044-7.054-.06-.121-.181-.3-.3-.543-.784-1.507-1.99-3.8-3.557-3.979A2.479,2.479,0,0,0,126.863,184.231Z" transform="translate(-93.813 -131.039)"/><path class="a" d="M160.081,173.4a3.93,3.93,0,0,0-2.593-2.11,1.985,1.985,0,0,0-1.507.482h0c-.6.6-.3,2.472.241,3.437.6,1.025,12.179,15.555,13.566,16.761a7.6,7.6,0,0,0,4.4,1.869h.241a1.909,1.909,0,0,0,1.387-.663,2.714,2.714,0,0,0,.543-2.291,3.232,3.232,0,0,0-1.326-2.11C174.069,188.294,161.227,175.272,160.081,173.4Z" transform="translate(-113.768 -129.737)"/><path class="a" d="M183.515,155.765c-6.391,4.462,1.206,15.8,1.206,15.8s-1.688.723-1.146,1.568a1.9,1.9,0,0,0,2.472.663c5.125,7.958,9.405,7.778,9.888,7.416s.241-1.628-.663-2.05c-.965-.422-5.486-5.848-5.486-5.848,2.713-.6,12.782-4.22,12.782-4.22,2.713,5.908,6.029,7.416,7.476,5.064s-3.919-8.863-3.919-8.863a1.8,1.8,0,0,0,0-1.507c-.3-.482-1.146-.181-1.146-.181C202.085,159.744,189.906,151.3,183.515,155.765Zm15.555,9.586c-3.557.723-11.938,4.522-11.938,4.522-3.075-5.064-3.557-10.008-1.447-10.792C191.172,157.031,199.07,165.351,199.07,165.351Z" transform="translate(-123.817 -123.072)"/><path class="a" d="M213.656,143.185a3.935,3.935,0,0,0,1.748-.362.932.932,0,0,0,.482-.965c-.121-1.085-1.688-2.351-4.04-3.256-3.376-1.326-5.788-2.351-6.029-2.472a6.8,6.8,0,0,0-3.919-.784,1.39,1.39,0,0,0-1.085.784c-.3.543-.181,2.05,1.447,3.015C202.382,139.085,209.617,143.185,213.656,143.185Z" transform="translate(-131.65 -115.436)"/></g></g></svg>