<svg xmlns="http://www.w3.org/2000/svg" width="145" height="134.116" viewBox="0 0 145 134.116">
  <g id="birthday" transform="translate(0 -16.499)">
    <path id="Path_28" data-name="Path 28" d="M46.41,132.941a2.48,2.48,0,0,0,2.469-2.491V117.856c.322.336.662.744,1.058,1.228,1.459,1.784,3.457,4.227,7.336,4.227s5.877-2.443,7.336-4.227c1.334-1.631,2.041-2.415,3.527-2.415s2.192.784,3.526,2.415c1.458,1.784,3.456,4.227,7.335,4.227s5.877-2.443,7.335-4.227c1.334-1.631,2.041-2.415,3.526-2.415s2.193.784,3.527,2.415c1.459,1.784,3.457,4.227,7.336,4.227s5.877-2.443,7.336-4.227c1.334-1.631,2.041-2.415,3.527-2.415s2.193.784,3.527,2.415c1.459,1.784,3.457,4.227,7.336,4.227s5.877-2.443,7.336-4.227c1.334-1.631,2.041-2.415,3.527-2.415s2.194.784,3.528,2.415c1.459,1.784,3.457,4.227,7.337,4.227s5.878-2.443,7.337-4.227c.4-.484.736-.892,1.059-1.229v9.108a2.469,2.469,0,1,0,4.938,0V107.855a9.751,9.751,0,0,0-9.7-9.782H131.87V78.647a2.48,2.48,0,0,0-2.469-2.491h-8.393a2.48,2.48,0,0,0-2.469,2.491V98.073H105.948V78.647a2.48,2.48,0,0,0-2.469-2.491H95.085a2.48,2.48,0,0,0-2.469,2.491V98.073H80.025V78.647a2.48,2.48,0,0,0-2.469-2.491H69.162a2.48,2.48,0,0,0-2.469,2.491V98.073H53.637a9.75,9.75,0,0,0-9.7,9.782v22.6A2.48,2.48,0,0,0,46.41,132.941Zm77.067-51.8h3.456V98.073h-3.456Zm-25.923,0h3.456V98.073H97.554Zm-25.923,0h3.456V98.073H71.632ZM53.637,103.054H147.81a4.785,4.785,0,0,1,4.759,4.8v4.211a10.613,10.613,0,0,0-4.868,3.849c-1.334,1.631-2.041,2.415-3.528,2.415s-2.194-.784-3.528-2.415c-1.459-1.784-3.457-4.227-7.337-4.227s-5.877,2.443-7.336,4.227c-1.334,1.631-2.041,2.415-3.527,2.415s-2.193-.784-3.527-2.415c-1.459-1.784-3.457-4.227-7.336-4.227s-5.877,2.443-7.336,4.227c-1.334,1.631-2.041,2.415-3.527,2.415s-2.193-.784-3.527-2.415c-1.459-1.784-3.457-4.227-7.336-4.227s-5.877,2.443-7.335,4.227c-1.334,1.631-2.041,2.415-3.526,2.415s-2.192-.784-3.526-2.415c-1.458-1.784-3.456-4.227-7.335-4.227s-5.877,2.443-7.336,4.227c-1.334,1.631-2.041,2.415-3.527,2.415s-2.193-.784-3.527-2.415a10.609,10.609,0,0,0-4.867-3.849v-4.211A4.785,4.785,0,0,1,53.637,103.054Z" transform="translate(-29.349 -39.846)" fill="#5a5a5a"/>
    <path id="Path_29" data-name="Path 29" d="M180.487,304.145H165.045a2.491,2.491,0,1,0,0,4.981h15.442a2.491,2.491,0,1,0,0-4.981Z" transform="translate(-109.001 -192.801)" fill="#5a5a5a"/>
    <path id="Path_30" data-name="Path 30" d="M189.719,32.9a8.219,8.219,0,0,0,11.623-11.623l-4.051-4.05a2.49,2.49,0,0,0-3.522,0l-4.051,4.05a8.228,8.228,0,0,0,0,11.623Zm3.522-8.1,2.289-2.289L197.82,24.8a3.238,3.238,0,1,1-4.579,4.579h0A3.241,3.241,0,0,1,193.241,24.8Z" transform="translate(-125.59)" fill="#5a5a5a"/>
    <path id="Path_31" data-name="Path 31" d="M110.973,32.9A8.219,8.219,0,0,0,122.6,21.279l-4.051-4.05a2.49,2.49,0,0,0-3.522,0l-4.051,4.05a8.228,8.228,0,0,0,0,11.623Zm3.522-8.1,2.289-2.289,2.289,2.289A3.238,3.238,0,0,1,114.5,29.38h0A3.241,3.241,0,0,1,114.5,24.8Z" transform="translate(-72.793)" fill="#5a5a5a"/>
    <path id="Path_32" data-name="Path 32" d="M268.465,32.9a8.219,8.219,0,0,0,11.623-11.623l-4.051-4.05a2.49,2.49,0,0,0-3.522,0l-4.05,4.05a8.228,8.228,0,0,0,0,11.623Zm3.522-8.1,2.289-2.289,2.289,2.289a3.238,3.238,0,0,1-4.579,4.579h0A3.241,3.241,0,0,1,271.987,24.8Z" transform="translate(-178.387)" fill="#5a5a5a"/>
    <path id="Path_33" data-name="Path 33" d="M23.1,297.481H4.981v-25.4H44.83v1.86a2.491,2.491,0,0,0,4.981,0v-17.8a2.491,2.491,0,0,0-2.491-2.491H2.491A2.491,2.491,0,0,0,0,256.139v43.833a2.491,2.491,0,0,0,2.491,2.491H23.1a2.491,2.491,0,1,0,0-4.981Zm21.73-38.852V267.1H4.981v-8.468Z" transform="translate(0 -159.319)" fill="#5a5a5a"/>
    <path id="Path_34" data-name="Path 34" d="M298.44,245.051H234.454a2.491,2.491,0,0,0-2.491,2.491v33.23a2.491,2.491,0,0,0,2.491,2.491H298.44a2.491,2.491,0,0,0,2.491-2.491v-33.23A2.491,2.491,0,0,0,298.44,245.051Zm-2.491,12.817H268.937v-7.836h27.012v7.836Zm-31.993-7.836v7.836H236.944v-7.836Zm-27.012,12.817h27.012V278.28H236.944Zm31.993,15.431V262.849h27.012V278.28Z" transform="translate(-155.93 -153.377)" fill="#5a5a5a"/>
    <path id="Path_35" data-name="Path 35" d="M127.02,333.826H91.287a2.491,2.491,0,0,0-2.491,2.491V361a2.491,2.491,0,0,0,2.491,2.491H127.02A2.491,2.491,0,0,0,129.511,361V336.317A2.491,2.491,0,0,0,127.02,333.826Zm-2.491,12.339H111.644v-7.358H124.53Zm-17.867-7.358v7.358H93.777v-7.358ZM93.777,351.147h12.885V358.5H93.777Zm17.867,7.358v-7.358H124.53V358.5Z" transform="translate(-59.588 -212.871)" fill="#5a5a5a"/>
  </g>
</svg>
