<svg xmlns="http://www.w3.org/2000/svg" width="145" height="105.964" viewBox="0 0 145 105.964">
  <g id="book" transform="translate(0 -54.877)">
    <path id="Path_17" data-name="Path 17" d="M142.333,68.214h-6.384V62.173a2.668,2.668,0,0,0-2.356-2.649L96.6,55.18a43.741,43.741,0,0,0-24.1,4.013A43.737,43.737,0,0,0,48.4,55.18L11.407,59.524a2.668,2.668,0,0,0-2.356,2.649v6.041H2.667A2.667,2.667,0,0,0,0,70.882v87.292a2.667,2.667,0,0,0,2.667,2.668H142.333A2.667,2.667,0,0,0,145,158.173V70.882A2.668,2.668,0,0,0,142.333,68.214ZM95.98,60.479l34.633,4.067V143.88L96.6,139.886a43.732,43.732,0,0,0-21.436,2.843V63.835A38.43,38.43,0,0,1,95.98,60.479Zm-46.961,0a38.426,38.426,0,0,1,20.813,3.357v78.894a43.664,43.664,0,0,0-16.275-3.147,44.3,44.3,0,0,0-5.161.3L14.386,143.88V64.546Zm90.646,95.027H5.335V73.549H9.051v73.33a2.668,2.668,0,0,0,2.979,2.649l36.989-4.344a38.44,38.44,0,0,1,22.253,4.063,2.667,2.667,0,0,0,2.455,0,38.435,38.435,0,0,1,22.253-4.063l36.989,4.344a2.71,2.71,0,0,0,.311.018,2.668,2.668,0,0,0,2.668-2.667V73.549h3.717v81.957Z" transform="translate(0 0)" fill="#5a5a5a"/>
    <path id="Path_18" data-name="Path 18" d="M221.493,98.73a26.756,26.756,0,0,1,10.177-.757L251,100.243a1.876,1.876,0,0,0,.219.013,1.857,1.857,0,0,0,.214-3.7L232.1,94.285a30.44,30.44,0,0,0-11.584.861,1.857,1.857,0,1,0,.973,3.583Z" transform="translate(-120.827 -29.493)" fill="#5a5a5a"/>
    <path id="Path_19" data-name="Path 19" d="M53.077,100.268a1.873,1.873,0,0,0,.219-.013l19.331-2.27a26.928,26.928,0,0,1,10.178.759,1.857,1.857,0,1,0,.976-3.583A30.638,30.638,0,0,0,72.195,94.3l-19.332,2.27a1.857,1.857,0,0,0,.214,3.7Z" transform="translate(-38.541 -29.505)" fill="#5a5a5a"/>
    <path id="Path_20" data-name="Path 20" d="M221.493,133.132a26.755,26.755,0,0,1,10.177-.757L251,134.645a1.876,1.876,0,0,0,.219.013,1.857,1.857,0,0,0,.214-3.7l-19.333-2.27a30.446,30.446,0,0,0-11.584.861,1.857,1.857,0,1,0,.973,3.583Z" transform="translate(-120.827 -46.695)" fill="#5a5a5a"/>
    <path id="Path_21" data-name="Path 21" d="M53.077,134.668a1.873,1.873,0,0,0,.219-.013l19.331-2.27a26.937,26.937,0,0,1,10.178.759,1.857,1.857,0,0,0,.976-3.583,30.641,30.641,0,0,0-11.585-.864l-19.332,2.27a1.857,1.857,0,0,0,.214,3.7Z" transform="translate(-38.541 -46.705)" fill="#5a5a5a"/>
    <path id="Path_22" data-name="Path 22" d="M221.493,167.532a26.755,26.755,0,0,1,10.177-.757L251,169.045a1.876,1.876,0,0,0,.219.013,1.857,1.857,0,0,0,.214-3.7l-19.333-2.27a30.451,30.451,0,0,0-11.584.861,1.857,1.857,0,1,0,.973,3.583Z" transform="translate(-120.827 -68.52)" fill="#5a5a5a"/>
    <path id="Path_23" data-name="Path 23" d="M53.077,169.069a1.873,1.873,0,0,0,.219-.013l19.331-2.27a26.937,26.937,0,0,1,10.178.759,1.857,1.857,0,0,0,.976-3.583,30.645,30.645,0,0,0-11.585-.864l-19.332,2.27a1.857,1.857,0,0,0,.214,3.7Z" transform="translate(-38.541 -68.53)" fill="#5a5a5a"/>
    <path id="Path_24" data-name="Path 24" d="M221.493,201.932a26.749,26.749,0,0,1,10.177-.757L251,203.445a1.876,1.876,0,0,0,.219.013,1.857,1.857,0,0,0,.214-3.7l-19.333-2.27a30.451,30.451,0,0,0-11.584.861,1.857,1.857,0,1,0,.973,3.583Z" transform="translate(-120.827 -90.345)" fill="#5a5a5a"/>
    <path id="Path_25" data-name="Path 25" d="M53.077,203.469a1.873,1.873,0,0,0,.219-.013l19.331-2.27a26.929,26.929,0,0,1,10.178.759,1.857,1.857,0,1,0,.976-3.583,30.642,30.642,0,0,0-11.585-.864l-19.332,2.27a1.857,1.857,0,0,0,.214,3.7Z" transform="translate(-38.541 -90.356)" fill="#5a5a5a"/>
    <path id="Path_26" data-name="Path 26" d="M251.436,234.157l-19.332-2.27a30.449,30.449,0,0,0-11.584.861,1.857,1.857,0,0,0,.973,3.584,26.766,26.766,0,0,1,10.177-.757L251,237.845a1.876,1.876,0,0,0,.219.013,1.857,1.857,0,0,0,.214-3.7Z" transform="translate(-120.827 -112.17)" fill="#5a5a5a"/>
    <path id="Path_27" data-name="Path 27" d="M53.077,237.87a1.873,1.873,0,0,0,.219-.013l19.331-2.27a26.937,26.937,0,0,1,10.178.759,1.857,1.857,0,0,0,.976-3.583,30.641,30.641,0,0,0-11.585-.864l-19.332,2.27a1.857,1.857,0,0,0,.214,3.7Z" transform="translate(-38.541 -112.182)" fill="#5a5a5a"/>
  </g>
</svg>
