<?xml version="1.0" encoding="utf-8"?>
<!-- Generator: Adobe Illustrator 24.0.0, SVG Export Plug-In . SVG Version: 6.00 Build 0)  -->
<svg version="1.1" id="Livello_1" xmlns="http://www.w3.org/2000/svg" xmlns:xlink="http://www.w3.org/1999/xlink" x="0px" y="0px"
	 viewBox="0 0 512 512" style="enable-background:new 0 0 512 512;" xml:space="preserve">
<style type="text/css">
	.st0{fill:#FFFFFF;}
</style>
<g id="tmSND5.tif_1_">
	<g>
		<path class="st0" d="M194.5,282c8.1,10.7,17.3,22.6,26.5,34.7c9.6,12.6,19.4,25,28.7,37.8c1.9,2.6,3.3,7.6,2,9.9
			c-1.4,2.7-6.1,5.1-9.4,5.1c-56.6,0.3-113.2,0.2-169.9,0.2c-8.1,0-11.2-2.9-11.2-10.9c-0.1-68.6-0.1-137.2,0-205.9
			c0-7.6,3.1-10.5,10.7-10.5c28.4-0.1,56.8-0.1,85.3,0.1c5.8,0,11.6,0.8,17.3,1.9c52.4,10,76.8,70.1,45.4,113.6
			C213.5,266.9,203.7,273.4,194.5,282z"/>
		<path class="st0" d="M418.4,244.9c25.4,12.5,33.2,34.2,32.5,59.7c-0.9,32.1-20.2,54.2-53.5,61.7c-9.2,2-18.9,3.1-28.4,3.2
			c-27.5,0.4-55,0.2-82.5,0.2c-10.4,0-12.7-2.3-12.7-12.7c0-67.3,0-134.4,0-201.7c0-10.5,2.3-12.8,12.6-12.9
			c25.6,0,51.3-0.3,76.9,0.2c8.3,0.2,16.8,1.1,24.9,3.1c23.6,5.9,37.9,21.1,41.7,45.3C432.9,209.8,431.5,228.1,418.4,244.9z"/>
	</g>
</g>
</svg>
